/* XPM */
static char *result[] = {
/* columns rows colors chars-per-pixel */
"32 32 88 1 ",
"  c #AD753F",
". c #AE753F",
"X c #AE763F",
"o c #AE7640",
"O c #AE7641",
"+ c #AF7741",
"@ c #B07843",
"# c #B07943",
"$ c #B17A44",
"% c #B27A44",
"& c #B37C46",
"* c #B47C47",
"= c #B47D47",
"- c #B47D48",
"; c #B57E49",
": c #B67E4A",
"> c #B67F4A",
", c #B77F4B",
"< c #BB8044",
"1 c #BB8045",
"2 c #BB8145",
"3 c #BC8145",
"4 c #BC8247",
"5 c #B7804B",
"6 c #B7804C",
"7 c #BC8248",
"8 c #BD8248",
"9 c #BD8348",
"0 c #BE844B",
"q c #B8804C",
"w c #B8814C",
"e c #B8814D",
"r c #B9824D",
"t c #BA834E",
"y c #BA834F",
"u c #BE854C",
"i c #BF864E",
"p c #BF864F",
"a c #BF874F",
"s c #BA8450",
"d c #BB8550",
"f c #BA8552",
"g c #BC8551",
"h c #BD8652",
"j c #BD8753",
"k c #BE8753",
"l c #BE8854",
"z c #BF8854",
"x c #C08750",
"c c #C08851",
"v c #C18952",
"b c #C18A54",
"n c #C28A54",
"m c #C28A55",
"M c #C28B55",
"N c #C08A56",
"B c #C18A57",
"V c #C18B57",
"C c #C28B56",
"Z c #C38C57",
"A c #C28C58",
"S c #C38C58",
"D c #C38D58",
"F c #C38D59",
"G c #C38D5A",
"H c #C48D59",
"J c #C48E5B",
"K c #C58E5B",
"L c #C58F5B",
"P c #C58F5C",
"I c #C58F5D",
"U c #C5905D",
"Y c #C6905D",
"T c #C6915F",
"R c #C69160",
"E c #C69261",
"W c #C79463",
"Q c #C79464",
"! c #C9986A",
"~ c #CB9D71",
"^ c #CC9E73",
"/ c #CEA178",
"( c #CEA278",
") c #D0A881",
"_ c #D1A881",
"` c #D1A882",
"' c #D2AB86",
"] c None",
/* pixels */
"]]'`_))))))))))))))))))))))_`']]",
"]/!QETTTTTTTRRRRTTTTTTTTTTTEW!(]",
"~TKPPPPPPPPJHSSHLPPPPPPPPPPPPKR^",
"fwwwwwrgFPHu7448aKPPPPPPPPPPPPPQ",
"OoooooooyIm1<<<<4DPPPPPPPPPPPPPI",
"oooooooo6Pm2<<<<4DPPPPPPPPPPPPPP",
"oooooooowPm2<<<<4DPPPPPPPPPPPPPP",
"oooooooowPm1<<<<4FPPPPPPPPPPPPPP",
"oooooooowPD9111<0JPPPPPPPPPPPPPP",
"oooooooowPPZbmMMHPPPPPPPPPPPPPPP",
"oooooooowPh>:qNPPPPPPPPPPPPPPPPP",
"oooooooowJ& o rPPPPPPPPPPPPPPPPP",
"ooooooooeJ&ooorPPPPPPPPPPPPPPPPP",
"######@%zJ* .otPPPPPPPPPPPPPPPPP",
"VVVVVVVAPPh,,wVPPPPPPPPPPPPPPPPP",
"PPPPPPPPPPPPPPPPPPPPPPPPPPPPPPPP",
"PPPPPPPPPPPPPPPPPPPPPPPPPPPPPPPP",
"PPPPPPPPPPPPPPPPPPPPPPPPPPPPPPPP",
"PPPPPPPPPPPPPPPPPPPPPPPPPPPPPPPP",
"PPPPPPPPPPPPPPPPPPPVr>::5dJPPPPP",
"PPPPPPPPPPPPPPPPPPP5Xoooo+zPPPPP",
"PPPPPPPPPPPPPPPPPPP;ooooo+hPPPPP",
"PPPPPPPPPPPPJZMmMDJ:ooooo+jPPPPP",
"PPPPPPPPPPPPv31114C>ooooo+jPPPPP",
"PPPPPPPPPPPPp<<<<<n>ooooo+jUA6-=",
"PPPPPPPPPPPPa<<<<<ms+++++$BYhooo",
"PPPPPPPPPPPPa<<<<<mJljjjjNPPhooo",
"PPPPPPPPPPPPx<<<<1CPPPPPPPPPkooo",
"PPPPPPPPPPPPHxppicJPPPPPPPPPGyww",
"PPPPPPPPPPPPPPPPPPPPPPPPPPPPPPPP",
"]PPPPPPPPPPPPPPPPPPPPPPPPPPPPPP]",
"]]PPPPPPPPPPPPPPPPPPPPPPPPPPPP]]"
};
