/* XPM */
static char *_89b710c9ef740f1cafd5e8905f407faK26FIi1pu4QQE4Kr[] = {
/* columns rows colors chars-per-pixel */
"70 70 54 1 ",
"  c None",
". c #AE7640",
"X c #AF7741",
"o c #B07943",
"O c #B07944",
"+ c #B07A45",
"@ c #B27A45",
"# c #B37C47",
"$ c #B57D48",
"% c #B67F4A",
"& c #BB8044",
"* c #BB8045",
"= c #BC8147",
"- c #BC8248",
"; c #BD834A",
": c #B8804C",
"> c #B9824E",
", c #BA844F",
"< c #BE854D",
"1 c #BF864E",
"2 c #BC8551",
"3 c #BD8753",
"4 c #BF8855",
"5 c #C08750",
"6 c #C08851",
"7 c #C18953",
"8 c #C18A54",
"9 c #C08A56",
"0 c #C28B56",
"q c #C38C57",
"w c #C28B58",
"e c #C38D59",
"r c #C38D5A",
"t c #C48E5A",
"y c #C48F5B",
"u c #C58F5B",
"i c #C48F5C",
"p c #C58F5C",
"a c #C5905E",
"s c #C29061",
"d c #C79464",
"f c #C89667",
"g c #CA9A6C",
"h c #CB9C6F",
"j c #CC9E72",
"k c #CC9F75",
"l c #CEA379",
"z c #CEA37A",
"x c #D0A882",
"c c #D3AC88",
"v c #D2AD88",
"b c #D3AC89",
"n c #D2AD89",
"m c #D3AD89",
/* pixels */
"      mmccmmmmmmmmmmmmmmmmmmmmmmmmmmmmmmmmmmmmmmmmmmmmmmmmmmcccm      ",
"    mmmmmmmmmmmmmmmmmmmmmmmmmmmmmmmmmmmmmmmmmmmmmmmmmmmmmmmmmmmmcc    ",
"  ccmlhffdppppppppppppppppppppppppppppppppppppppppppppppppppdffjlccc  ",
" ccjaatappppppppppppppppppppppppppppppppppppppppppppppppppppppptaakcc ",
" cdaatatppppppppppppppppppuupppppppppppppppppppppppppppppppppppppppgc ",
"chattatappppppppppppppppppuuppppppppppppppppppppppppppppppppppppppppjc",
"zaaaatatpppppppppppppppppqq75555500upppppppppppppppppppppppppppppppptx",
"s>>>->>>>>>>>>279ppppppp5$&&&&&&5$&&7ppppppppppppppppppppppppppppppppk",
"O................#wpppp9&&&&&&&&&&&&&uuppppppppppppppppppppppppppppppf",
"O.................>tppp5&&&&&&&&&&&&&qpppppppppppppppppppppppppppppppp",
"..................$pppp5&&&&&&&&&&&&&7pppppppppppppppppppppppppppppppp",
"..................#pppp5&&&&&&&&&&&&&qpppppppppppppppppppppppppppppppp",
"..................$tuuu5&&&&&&&&&&&&&5uppppppppppppppppppppppppppppppp",
"..................$tuuu5&&&&&&&&&&&&&7uupppppppppppppppppppppppppppppp",
"..................$pupu5&&&&&&&&&&&&&quupppppppppppppppppppppppppppppp",
"..................$pppq5&&&&&&&&&&&&&7uupppppppppppppppppppppppppppppp",
"..................#pppp2&&&&&&&&&&&&$0pppppppppppppppppppppppppppppppp",
"..................#pppp6&&&&&&&&&&&&50pppppppppppppppppppppppppppppppp",
"..................#ppppt&&&5&&&&&&&&&qpppppppppppppppppppppppppppppppp",
"..................#ppppt5&&$&&&&&&&&qupppppppppppppppppppppppppppppppp",
"..................#ppppppr9000097q0upppppppppppppppppppppppppppppppppp",
"..................#pppppptppppppuuuupppppppppppppppppppppppppppppppppp",
"..................#pppp94>>>249ppppppppppppppppppppppppppppppppppppppp",
"..................$ppp2........2pppppppppppppppppppppppppppppppppppppp",
"..................#ppp#........#pppppppppppppppppppppppppppppppppppppp",
"..................#ppp#........#pppppppppppppppppppppppppppppppppppppp",
"..................#ppp#........#pppppppppppppppppppppppppppppppppppppp",
"..................#ptt#........#pppppppppppppppppppppppppppppppppppppp",
"..................>tpp#........#pppppppppppppppppppppppppppppppppppppp",
"..................wppp#........#pppppppppppppppppppppppppppppppppppppp",
"################$9pppp%........>pppppppppppppppppppppppppppppppppppppp",
"ppppppppppppppppppppppp#......#wpppppppppppppppppppppppppppppppppppppp",
"pppppppppppppppppppppppppppppppppppppppppppppppppppppppppppppppppppppp",
"pppppppppppppppppppppppppppppppppppppppppppppppppppppppppppppppppppppp",
"pppppppppppppppppppppppppppppppppppppppppppppppppppppppppppppppppppppp",
"pppppppppppppppppppppppppppppppppppppppppppppppppppppppppppppppppppppp",
"pppppppppppppppppppppppppppppppppppppppppppppppppppppppppppppppppppppp",
"pppppppppppppppppppppppppppppppppppppppppppppppppppppppppppppppppppppp",
"pppppppppppppppppppppppppppppppppppppppppppppppppppppppppppppppppppppp",
"pppppppppppppppppppppppppppppppppppppppppppppppppppppppppppppppppppppp",
"pppppppppppppppppppppppppppppppppppppppppppppppppppppppppppppppppppppp",
"pppppppppppppppppppppppppppppppppppppppppppppppppppppppppppppppppppppp",
"pppppppppppppppppppppppppppppppppppppppppppu>>$$####$$>2pppppppppppppp",
"pppppppppppppppppppppppppppppppppppppppppp0X............#tpppppppppppp",
"pppppppppppppppppppppppppppppppppppppppppp$..............2pppppppppppp",
"pppppppppppppppppppppppppppppppppppppppppp$..............>pppppppppppp",
"pppppppppppppppppppppppppppppppppppppppppp$..............%pppppppppppp",
"pppppppppppppppppppppppppppppppppppppppppp$.............X>pppppppppppp",
"ppppppppppppppppppppppppppppuuuuptptatatpp#..............>pppppppppppp",
"ppppppppppppppppppppppppppppuqr0q0q0qatapp#..............>pppppppppppp",
"ppppppppppppppppppppppppuupu5&&&&&&&&&&rpp#..............>pppppppppppp",
"ppppppppppppppppppppppppuuu5&&&&&&&&&&**pp#..............>pppppppppppp",
"ppppppppppppppppppppppppppu=&&&&&&&&&&&&pp#..............>pppppppppppp",
"ppppppppppppppppppppppppppq5&&&&&&&&&&&&pp#..............>ppppp4##....",
"ppppppppppppppppppppppppppp$&&&&&&&&&&&*pp#..............>ppppw.......",
"ppppppppppppppppppppppppppp5&&&&&&&&&&&*pr2..............9pppp2.......",
"ppppppppppppppppppppppppuuq&&&&&&&&&&&&&ppr#............$ppppp4.......",
"ppppppppppppppppppppppppuuq5&&&&&&&&&&&&pppr>>>>>>>>>>>2pppppp4.......",
"ppppppppppppppppppppppppupq5&&&&&&&&&&&&pppppppppppppppppppppp4.......",
"pppppppppppppppppppppppppp75&&&&&&&&&&&&pppppppppppppppppppppp4.......",
"ppppppppppppppppppppppppppp5&&&&&&&5&&&&ppppppppppppppppppppppw.......",
"ppppppppppppppppppppppppppuq&5&&&&&$&&$0ppppppppppppppppppppppp#......",
"ppppppppppppppppppppppppppuuq5555575577upppppppppppppppppppppppw<>>,>>",
"ppppppppppppppppppppppppppppuuuuqquuupuuppppppppppppppppppppppppppttat",
" pppppppppppppppppppppppppppppppppppppppppppppppppppppppppppppppppppp ",
" pppppppppppppppppppppppppppppppppppppppppppppppppppppppppppppppppppp ",
" tpppppppppppppppppppppppppppppppppppppppppppppppppppppppppppppppppp  ",
"  pppppppppppppppppppppppppppppppppppppppppppppppppppppppppppppppppu  ",
"    ppppppppppppppppppppppppppppppppppppppppppppppppppppppppppppta    ",
"     tpppppppppppppppppppppppppppppppppppppppppppppppppppppppppua     "
};
