/* XPM */
static char *_2ab3f18ff904279bb1c9bc2a79f15939JwmJ9d6Jmn87VkE[] = {
/* columns rows colors chars-per-pixel */
"64 64 211 2 ",
"   c #000000",
".  c #060906",
"X  c #0A0D0A",
"o  c #080B07",
"O  c #0D120D",
"+  c #11160E",
"@  c #101611",
"#  c #151B14",
"$  c #181F16",
"%  c #1B231B",
"&  c #1F281F",
"*  c #222A1E",
"=  c #20271C",
"-  c #1F2920",
";  c #232C22",
":  c #263126",
">  c #2A3326",
",  c #2B352A",
"<  c #2E392D",
"1  c #323C2D",
"2  c #2F3B30",
"3  c #333E32",
"4  c #364134",
"5  c #3A4534",
"6  c #3A4639",
"7  c #3D4A3C",
"8  c #394637",
"9  c #35402E",
"0  c #424D3B",
"q  c #404A37",
"w  c #46513D",
"e  c #49533E",
"r  c #3F4C40",
"t  c #424F42",
"y  c #455244",
"u  c #4A5643",
"i  c #4E5943",
"p  c #4D5B4C",
"a  c #495649",
"s  c #525D45",
"d  c #525E4B",
"f  c #515F51",
"g  c #55614C",
"h  c #5A654C",
"j  c #5A6449",
"k  c #556352",
"l  c #5A6653",
"z  c #5D6955",
"x  c #5C6A5B",
"c  c #626B4E",
"v  c #626D53",
"b  c #6A7353",
"n  c #65715C",
"m  c #6B755B",
"M  c #697255",
"N  c #737B59",
"B  c #687564",
"V  c #737D64",
"C  c #747E67",
"Z  c #616F61",
"A  c #7B815C",
"S  c #7C856A",
"D  c #7B8365",
"F  c #7C8575",
"G  c #9B8A1D",
"H  c #A28E1D",
"J  c #AA921B",
"K  c #B79A1A",
"L  c #BFA018",
"P  c #8E832C",
"I  c #948725",
"U  c #9B8B22",
"Y  c #92862B",
"T  c #95892B",
"R  c #9B8D2C",
"E  c #978824",
"W  c #8C8534",
"Q  c #8B863C",
"!  c #8F893C",
"~  c #89843B",
"^  c #938A34",
"/  c #9A8E34",
"(  c #938C3B",
")  c #958B37",
"_  c #9D9137",
"`  c #9F902C",
"'  c #A38F24",
"]  c #A49123",
"[  c #AB9423",
"{  c #A8942C",
"}  c #B39923",
"|  c #BB9C24",
" . c #B39A2B",
".. c #B59927",
"X. c #A49334",
"o. c #A99636",
"O. c #B19A31",
"+. c #C39E19",
"@. c #DCAB0C",
"#. c #D7A70C",
"$. c #DDB30D",
"%. c #CBA314",
"&. c #C5A11C",
"*. c #CAA219",
"=. c #D2A514",
"-. c #D6AB12",
";. c #CFA910",
":. c #E1AC0A",
">. c #E5AB06",
",. c #ECBB05",
"<. c #E3B509",
"1. c #EAB405",
"2. c #F1BB02",
"3. c #C29E22",
"4. c #C3A122",
"5. c #EBC309",
"6. c #F4C402",
"7. c #F5CC02",
"8. c #F4C70A",
"9. c #F6D203",
"0. c #F9D501",
"q. c #F8DA06",
"w. c #E9C815",
"e. c #F6DA18",
"r. c #F1CE1A",
"t. c #FBE60C",
"y. c #FFFF0E",
"u. c #FBE718",
"i. c #FDF61E",
"p. c #F4D927",
"a. c #FBE827",
"s. c #FDF628",
"d. c #FAE637",
"f. c #FFFD3B",
"g. c #FDF634",
"h. c #8A8643",
"j. c #8B8947",
"k. c #938D44",
"l. c #938E49",
"z. c #96914C",
"x. c #9A9249",
"c. c #868858",
"v. c #918E54",
"b. c #9A9554",
"n. c #999559",
"m. c #A29B5C",
"M. c #A49C5A",
"N. c #868B67",
"B. c #8E916D",
"V. c #94946D",
"C. c #999765",
"Z. c #868C74",
"A. c #9C9B74",
"S. c #949679",
"D. c #8D9178",
"F. c #A49D63",
"G. c #A19F75",
"H. c #ACA46C",
"J. c #A9A266",
"K. c #B1A76D",
"L. c #A5A27C",
"P. c #AAA578",
"I. c #B3AA74",
"U. c #B5AC7C",
"Y. c #B8AF7C",
"T. c #BBB07E",
"R. c #FFFD44",
"E. c #FFFD4C",
"W. c #FDF348",
"Q. c #FEFD54",
"!. c #FFFD5B",
"~. c #FDF456",
"^. c #FBEB48",
"/. c #FFFE63",
"(. c #FFFE6C",
"). c #FDF468",
"_. c #FFFE74",
"`. c #FFFE7B",
"'. c #8B9385",
"]. c #999C84",
"[. c #858D80",
"{. c #A3A284",
"}. c #AAA683",
"|. c #AFAA82",
" X c #ADAA8B",
".X c #A7A58A",
"XX c #B4AD83",
"oX c #B3AE8B",
"OX c #B9AF83",
"+X c #B9B083",
"@X c #B7B089",
"#X c #A9A895",
"$X c #B2AE93",
"%X c #B0AE98",
"&X c #A09F85",
"*X c #FFFE82",
"=X c #FFFE8B",
"-X c #FFFE93",
";X c #FFFF9C",
":X c #FFFEA4",
">X c #FFFFAC",
",X c #FFFFB3",
"<X c #FFFFBC",
"1X c #FFFFC5",
"2X c #FFFFCB",
"3X c #FFFFD4",
"4X c #FFFFDC",
"5X c #FFFFE5",
"6X c #FFFFED",
"7X c #FFFFF3",
"8X c #FFFFFC",
/* pixels */
"                                                                                                                                ",
"                                                                .                                                               ",
"                                                  . . . X X X X X X X X o . .                                                   ",
"                                            . X O O @ # # $ $ $ $ $ # # # @ O X o .                                             ",
"                                      . o X @ # $ % - - ; ; ; ; : : ; ; - - $ $ # O X o                                         ",
"                                  . X O # % & - : : < 2 3 3 3 3 3 3 3 3 2 , : ; - % $ @ O o                                     ",
"                                . O # % - : , 9 4 6 7 7 t y y t y y y r r r r 2 < : ; & $ @ X .                                 ",
"                            . O @ % & : < 4 8 7 y p p k k l x x k x k k p p a r 7 8 3 , : % % + X                               ",
"                          X + $ & > 1 5 w e g j v M m N D D D D F S V V m n v l d u 0 q 9 < * % # O .                           ",
"                      . X + % * < 9 5 e j c b A c.N.V.A.A.L.|.}.{.}.&XS.S.Z.S V n v g i w 8 9 > = $ + .                         ",
"                      X # % > < 8 w s h b A c.V.L.}.U.Y.+X+X+XT.+X+XOXOXoXoX.XA.Z.S m v j e q 4 > * % + o                       ",
"                  . O # = > 1 q u j b A B.A.U.@X+XT.U.U.K.H.J.J.J.J.H.I.I.T.@X@X XG.S.N.m z d y q 1 * % + X .                   ",
"                . X # = > 9 w s h N N.A.}.OX+XT.K.J.b.b.z.x.k.x.x.k.l.z.x.m.J.I.T.OXOXL.B.D v h e q 1 > % + o                   ",
"                X # = < 5 w s c N B.L.XX+XY.H.n.z.k.k.( _ _ X.o.o.X._ ) ( ( l.x.M.K.T.T.}.A.N.M c u q 1 * % + o                 ",
"              . + = > 9 w s b N V.}.OX+XK.n.z.k._ _ o.O.O.O.O.| +.3. .{ / ^ ) ( x.x.J.I.T.OXL.N.N h e 5 1 * # O                 ",
"            . + = * 3 0 s b A C.|.OXY.J.z.k.( ^ _ o. .4.4.=.=.*.=.#.#.3.[ R R R / ( k.M.K.T.OXL.N.N c e 5 , * # O               ",
"            X # * 1 q s c A S.|.+XU.m.k.! ) ^ T ` { | *.$.1.,.1.>.>.>.:.%.} ] ` R / / k.x.K.T.+XL.N.N j w 9 > % + o             ",
"          . @ % , 8 i h N B.P.XXI.m.k.! ) T T U G ] } &.@.1.6.7.8.1.1.1.>.%.J J ] ` ` / _ x.J.T.+XL.N.v g 0 9 ; % O .           ",
"          O $ ; 9 w j b N.L.OXU.m.k.! ^ T G G H J K *.=.@.1.2.0.q.e.6.2.2.:.%.K J K [ { ` ( x.H.T.XXA.A c i 5 , % + .           ",
"        . @ % , 5 i v D G.@X+XJ.z.! ^ T U H J L %.$.5.5.8.8.6.0.u.a.u.8.2.2.:.%.&.&.&.4.} X._ x.K.T.U.B.N j e 5 ; % O           ",
"        O % ; 1 w h m D. XOXH.z.! ) T ' J L ;.w.p.d.^.~.~.W.d.a.t.s.R.s.9.7.,.1.$.#.$.-.&.{ _ ( M.K.+XL.c.b s 5 , - @ o         ",
"      . O % : 8 i v S {.OXU.n.( ) T ] K ;.9.u.R.`.:X<X2X3X3X<X-XQ.s.E.!.s.t.q.7.,.<.,.5.$.3.{ ) k.M.T.OXV.N j e 4 ; $ X         ",
"      X # ; 2 r g B S. XOXF.k.! T ' L $.q.u.R.(.*X;X>X1X3X5X7X6X3X-X/.(.!.f.s.u.9.2.6.7.5.-.} / / x.K.+XL.N.b i 6 , % @ .       ",
"      X % : 4 y z S &X@XP.b.( ^ ` &.$.9.u.Q.`.-X;X:X-X=X;X<X4X7X8X6X<X-X`.(.`./.a.9.9.q.9.>.+.{ / k.M.T.XXV.N j 0 2 ; # o       ",
"    . @ - , 6 a n Z. X@XJ.k.! / | @.2.a.(.:X<X1X1X1X>X;X*X`.-X1X7X8X7X4X:X-X:X,X).a.q.u.e.6.=...X.( x.I.Y.L.A v y 3 : $ X       ",
"    o @ - 2 r f B S.oXOXn.! )  .*.1.e.).;X>X<X<X1X2X3X1X:X_.R.Q.>X6X8X8X3X<X2X4X:X^.e.u.u.6.#.+.{ _ k.J.+XXXN.M p 6 : & @ .     ",
"    X $ ; 4 y k C &X@XI.z.( _ O.=.5.g.Q.(.`.;X<X3X5X3X,X_.f.y.y.E.:X6X8X7X4X5X7X2X).a.u.t.6.:.=. ._ ( m.Y.XXD.M d 7 < % @ .     ",
"    X % : 4 y x F  X@XF.k.( / ..$.6.q.u.g.(.,X3X4X1X;X/.f.i.y.y.s._.<X6X7X7X7X8X4X`.s.u.q.6.1.:.../ ( b.U.OXA.N k 7 2 ; # o     ",
"  . O % , 8 a x Z. XOXm.k.W R | -.1.,.q.g.=X2X3X<X=X/.!.Q.R.f.f.R.!.=X2X5X7X8X8X5X=Xi.q.0.6.2.>.4.X.) z.I.OXL.V x r 3 ; # X     ",
"  . @ % , 6 p n D.oXY.n.k.^ R } +.=.1.t.!.:X2X>X_./.`.*X*X*X`.(.!./._.;X2X6X8X8X5X*Xt.0.0.0.6.@.4.X.^ k.H.OX{.S x a 4 : $ X     ",
"    @ - < 6 p Z D.oXOXb.! ^ T ] } *.6.u._.,X,X(.!.=X,X<X1X1X<X:X`.`.`.*X,X5X8X8X4X).0.0.t.q.7.@.&.` ^ k.J.+X}.S x y 4 : % X     ",
"  . @ % < r p Z D.oXU.b.! W E G [ #.9.s.`.>X_.R.`.1X4X5X6X7X4X2X<X<X,X;X,X5X8X8X1X~.q.t.s.a.7.>.4.T ! k.J.+X.XS x y 4 : $ O     ",
"  . @ - , 7 f n D.oXU.b.! W I U } @.0.s.`.=XR./.<X6X8X8X8X7X5X5X6X6X6X3X3X6X8X7X:Xd.t.s.E.a.6.:...T ^ k.J.@X}.S x a 4 : - X     ",
"    @ % < 7 p n D. XU.b.! ^ Y E } :.7.i./.E.f.=X5X8X8X8X8X8X4X5X8X8X8X7X7X8X8X3X`.s.s.!.!.a.5.%.R T W k.J.+X.XN.x y 6 : $ X     ",
"  . @ - < 6 p Z S.@XU.n.! W I E J @.6.t.g.i.R.>X7X8X8X8X8X8X3X<X4X7X7X8X8X8X5X:XQ.f.Q._.~.u.$.K E Y ! k.J.oX.XS z y 4 : - X     ",
"    @ % , 6 a Z Z.oXXXm.j.W P E H #.,.t.t.t.~.1X8X8X8X8X8X8X4X:X-X<X3X5X6X4X>X_.E.!.`.`.^.5.%.G I Y ! l.H.oX{.D z y 3 ; # X     ",
"  . O $ : 3 p n N. XOXF.j.! P I ' #.>.2.7.0.W.<X7X8X8X8X8X8X6X,X_._.-X>X,X;X`././.`.`.~.e.#.K G E W ! z.U.oX].V k t 2 ; # o     ",
"    X $ : 3 a l S .XOXG.l.Q W I ' =.>.>.1.6.d.:X6X8X8X8X8X8X6X2X:X_.!.Q.!.(.(.(._._.~.e.$.K J E Y ^ Q n.U.oXS.B f r 2 - # .     ",
"    X $ ; 2 t f V &XoXU.n.Q ~ P ' +.#.%.@.1.d.-X5X8X8X8X8X8X7X5X1X:X=X_./.!.!._./.g.q.1.%.J G E Y ! k.F.OX XZ.M d 6 , - @       ",
"    . # ; < 0 f m D. XXXn.h.~ P ' +.+.+.+.>.p.`.1X6X8X8X8X8X8X7X5X1X>X-X`.`._./.s.t.5.#.L J G Y ^ W k.H.OX.XD v a 6 : - O .     ",
"    . @ % , 6 a M Z..X@XG.l.~ ~ ^ ..3. .| #.5.).,X2X7X8X8X8X7X6X5X3X1X:X=X_.E.s.9.,.@.%.K H E Y W h.b.+X@XS.V h t 3 ; $ X       ",
"      X $ ; 3 t f C ].$XXXn.h.~ W O.3.[ H +.<.d.-X,X1X7X7X7X5X3X2X,X;X_.R.s.t.9.2.1.#.+.J U T Y ( k.F.OX XB.M j 0 < - # o       ",
"      o # - 2 7 p m D..X@XG.l.h.W o.O.{ G J #.r.~.-X;X<X6X6X4X1X:X-X*X/.R.s.t.0.,.$.%.J H E Y W ! b.I.OXL.A z e 8 : % O .       ",
"      . O $ : 4 y c C S.$XXXF.j.h._ x.{ G H K @.p.W.).(.;X2X2X<X;X_.E.g.u.t.9.,.$.%.K J R Y ^ ! z.H.+XU.B.b j w 1 ; # o         ",
"        X # - 2 0 d m Z..XoXP.n.h.k.x./ I G H +.<.r.a.g.W./.-X:X-X/.f.u.q.7.,.>.;.&.| { / / ( k.m.T.+XA.c.c i 8 , % @ .         ",
"        . O % : 3 u l V D.$X@XP.v.j.k.( P P I H 3.$.5.e.q.t.p.^.).~.W.a.q.6.2.@.=.&. .X._ ( ( M.U.T.P.N.b j q 9 ; $ X           ",
"          X # ; 1 q p v C &XoX@XG.v.j.h.~ P P E { | *.@.1.,.1.,.r.p.p.e.9.7.1.>.=.3.o.X./ ( b.I.T.U.V.A c e 5 > % @ o           ",
"          . X $ > 3 t d M S &XoXOXG.c.h.~ ~ P P ) X.{ } +.*.%.%.%.;.$.w.w.<.$.-.&...o._ l.M.I.T.U.A.A c e q 1 ; @ X             ",
"            o @ % < 5 y h m Z.{.$XoXP.v.j.h.~ ~ ~ P ^ R { { [ [ J ] [ K K L L |  .o._ x.m.I.OXU.A.A b j q 9 > $ + .             ",
"              O $ * 1 8 y h m N.].$XoXP.C.c.h.~ ~ ~ W P P T T T T E T T / T / / _ k.x.M.U.Y.XXA.N.b j w q > = + o               ",
"              . O % ; < 7 u l M N.]. XoX|.G.n.j.h.~ ~ ~ W W W W ^ W W W W ( ! k.z.m.I.T.T.U.A.c.b j e 9 > * # X                 ",
"                . O % ; 1 7 y l n S D.#X$X$X XG.V.v.c.h.h.h.Q Q Q ! Q h.k.z.b.m.K.T.Y.XXL.B.N b j e 5 1 * # O .                 ",
"                  X + % : < 6 y d n V Z.].#X%X%X X}.G.C.n.v.v.v.v.v.v.n.C.H.I.+XOXOX}.A.N.N c j e 5 1 * # O .                   ",
"                    X @ % * < 5 0 p k n C [.].#X#X$X%X%X X X|.|.U.U.XXOX@XOX@X|.L.A.N.A b h e q 9 > * # O o                     ",
"                      . O $ * > 3 q y d x Z C F '.].#X#X#X%X$X%X$X$X XoX.XL.A.V.D N c h i w 6 3 > * # O .                       ",
"                        . O $ % ; < 3 7 y p k x n B C [.[.'.'.'.'.'.'.Z.F F B n z k i y 6 3 , ; % + X .                         ",
"                          . X @ $ - : 2 4 r t a f k x x Z Z Z B B Z Z Z x x f p y r 6 4 < ; - # @ X                             ",
"                              o O # - ; : 2 2 r r r y a f f f p f f f p a y r r 8 3 < ; - % # O .                               ",
"                                . X @ $ - - : , 2 3 3 r r r r r r r 7 6 4 4 2 2 : ; & % @ O o                                   ",
"                                    . X X # $ - - : : , , , 2 2 2 2 , , , : - - % $ @ O o .                                     ",
"                                        . X O @ # # % % - - - - - - - - - $ # @ @ X .                                           ",
"                                              X o X O O O @ # @ @ # O O O X X o                                                 ",
"                                                        . o o o o   o . .                                                       ",
"                                                                                                                                "
};
