/* XPM */
static char *result[] = {
/* columns rows colors chars-per-pixel */
"64 64 154 2 ",
"   c #000000",
".  c #060906",
"X  c #090D09",
"o  c #0D120D",
"O  c #101610",
"+  c #141C15",
"@  c #171F18",
"#  c #1B241B",
"$  c #1E281F",
"%  c #212C22",
"&  c #253125",
"*  c #283429",
"=  c #2C392C",
"-  c #2F3D30",
";  c #313E31",
":  c #354335",
">  c #374638",
",  c #384738",
"<  c #3C4B3C",
"1  c #404F40",
"2  c #435444",
"3  c #475848",
"4  c #4B5C4B",
"5  c #4E604E",
"6  c #526552",
"7  c #556956",
"8  c #576A58",
"9  c #596D5A",
"0  c #5D715E",
"q  c #617561",
"w  c #657A66",
"e  c #677C68",
"r  c #697E69",
"t  c #6D826E",
"y  c #728672",
"u  c #758A76",
"i  c #7A8E7A",
"p  c #7E937E",
"a  c #7EC4A6",
"s  c #7DC7AC",
"d  c #7ECAAF",
"f  c #829782",
"g  c #849B86",
"h  c #8B9F8B",
"j  c #8DA18D",
"k  c #91A592",
"l  c #96A996",
"z  c #9AAC9A",
"x  c #8EBD9E",
"c  c #9CB19D",
"v  c #91BD9F",
"b  c #93BFA2",
"n  c #A2B6A4",
"m  c #A2BCA7",
"M  c #ABBCAB",
"N  c #84C2A3",
"B  c #8CC3A5",
"V  c #84C5A9",
"C  c #8AC5AA",
"Z  c #83C9AD",
"A  c #8BC9AE",
"S  c #90C2A5",
"D  c #98C0A4",
"F  c #94C6AB",
"G  c #9BC6AB",
"H  c #96C9AE",
"J  c #81CDB3",
"K  c #89CCB2",
"L  c #93CDB3",
"P  c #9CCBB2",
"I  c #83D2BA",
"U  c #8CD3BD",
"Y  c #95D1BA",
"T  c #9BD2BC",
"R  c #ACC1AF",
"E  c #A5CCB3",
"W  c #AACDB5",
"Q  c #B4C4B5",
"!  c #B1CEB8",
"~  c #BECCBE",
"^  c #A4D2BB",
"/  c #AAD4BC",
"(  c #B3D3BE",
")  c #B8D2BE",
"_  c #8CD6C2",
"`  c #8FDAC9",
"'  c #9CD6C2",
"]  c #94D9C6",
"[  c #9CDAC7",
"{  c #94DCCC",
"}  c #9BDDCC",
"|  c #ADD7C3",
" . c #A6D9C6",
".. c #ACD8C4",
"X. c #A4DCCA",
"o. c #B4D6C1",
"O. c #BBD7C4",
"+. c #B5D9C6",
"@. c #BBD9C5",
"#. c #B4DFCF",
"$. c #BCDBC9",
"%. c #95E1D2",
"&. c #9CE2D4",
"*. c #93E6DB",
"=. c #9BE6D9",
"-. c #A1E2D4",
";. c #A8E1D4",
":. c #A5E5DA",
">. c #AAE5D9",
",. c #B4E0D2",
"<. c #B2E6DB",
"1. c #9CEBE5",
"2. c #A2EBE5",
"3. c #ACEBE3",
"4. c #BCECE6",
"5. c #A8F0ED",
"6. c #B5F0ED",
"7. c #BEF3F2",
"8. c #C0CDC0",
"9. c #C5D3C6",
"0. c #C2DAC7",
"q. c #CBD7CB",
"w. c #C2DDCC",
"e. c #C9DECC",
"r. c #C8DFD0",
"t. c #D5DDD4",
"y. c #C7E3D7",
"u. c #CBE1D3",
"i. c #CDE6DB",
"p. c #D3E2D4",
"a. c #D4E5D9",
"s. c #DAE4DB",
"d. c #D5E8DC",
"f. c #DDE9DF",
"g. c #CCEAE2",
"h. c #DCEBE1",
"j. c #C2F0EC",
"k. c #D4F2ED",
"l. c #C2F2F0",
"z. c #CEF4F1",
"x. c #D4F4F2",
"c. c #DBF5F3",
"v. c #DFF7F9",
"b. c #E0E7E0",
"n. c #E3EBE3",
"m. c #E9EFE9",
"M. c #E6F1E9",
"N. c #ECF3ED",
"B. c #E4F5F3",
"V. c #EFF5F0",
"C. c #ECF9F9",
"Z. c #F1F6F2",
"A. c #F3FAFA",
"S. c #FBFBFC",
/* pixels */
"                                                                                                                                ",
"                                                                                                                                ",
"                                                                                                                                ",
"                                                                                                                                ",
"                                                                                                                                ",
"                                                                                                                                ",
"                                                                                                                                ",
"                                                                                                                                ",
"                                                                                                                                ",
"                                                                                                                                ",
"                                                                                                                                ",
"                                                                                                                                ",
"                                                                                                                                ",
"                                                                                                                                ",
"                                                                                                                                ",
"                                                                                                                                ",
"                                                                                                                                ",
"                                                                                                                                ",
"                                                                                                                                ",
"                                                      . o @ # $ # # + X .                                                       ",
"                                                  X @ * > 2 5 6 6 5 2 : & + .                                                   ",
"                                                O * 1 8 t g z m m c g t 6 1 % o                                                 ",
"                                            . + ; 6 y b 0.n.N.N.V.N.h.0.z t 4 ; +                                               ",
"                                            # < q h q.V.M.d.w.$.$.w.a.M.V.9.g 9 : +                                             ",
"                                          + > q l n.N.u.+.o.o.@.@.( ^ ^ e.V.s.j 9 ; o                                           ",
"                                        X = 8 j n.m.+.| ..^ T T  .$.w./ F ! N.s.f 5 & .                                         ",
"                                        # 2 i t.M.o. .L K Z J J I U  .w.W S ) V.8.r < +                                         ",
"                                      X = 9 M N.O.^ L V Z s I _ U I I X.$.F G e.m.l 8 * .                                       ",
"                                      + < u t.f.^ L V a d { 4.c.M.g.] I #.P F W n.9.r , o                                       ",
"                                      # 4 k m.w.P C a s &.x.C.C.C.S.k._ X.^ F P r.b.f 1 +                                       ",
"                                    . % 6 n Z.( F N a ` k.B.l.6.7.C.A.-.[  .A H 0.m.k 5 $                                       ",
"                                    . & 9 Q N.W S N J <.c.6.1.2.1.z.S.>.{ T C F o.N.c 6 %                                       ",
"                                    . * 9 Q N.E B N _ g.j.1.2.7.5.z.S.-.&.L C S o.N.c 6 %                                       ",
"                                      * 9 M N.W x V [ g.3.*.3.v.v.S.k.%.X.K C S O.N.z 6 $                                       ",
"                                      $ 7 c N.) v A [ i.:.*.=.z.C.x.=.&.Y V B F u.M.j 3 #                                       ",
"                                      + 3 h n.p.D F ' y.;.{ %.%.=.{ } Y d V H / n.a.u < o                                       ",
"                                      X , y ~ N.W H T ,.,.{ ` ] ] ] U J Z L ! w.V.Q 0 = .                                       ",
"                                      . % 9 k n.h.E T +.w.X.] _ U U K K T ^ o.N.f.g 2 #                                         ",
"                                        o , t M V.d.^ ^ $.$. .' ' T T  ./ o.M.V.n 9 = X                                         ",
"                                          # 4 i Q Z.h.| / O.0.+.+.| | O.e.N.V.R e , +                                           ",
"                                          . % 5 y n n.N.d.w.$.0.0.w.p.n.Z.f.n e 2 #                                             ",
"                                            . % 2 q h ~ b.N.V.N.N.V.N.f.Q g 9 < # .                                             ",
"                                              . # : 4 w p l M Q Q M l i 0 3 - + .                                               ",
"                                                . o % : 3 6 9 0 0 9 5 2 : $ o                                                   ",
"                                                    . o @ % * = = * % + X .                                                     ",
"                                                            . . . .                                                             ",
"                                                                                                                                ",
"                                                                                                                                ",
"                                                                                                                                ",
"                                                                                                                                ",
"                                                                                                                                ",
"                                                                                                                                ",
"                                                                                                                                ",
"                                                                                                                                ",
"                                                                                                                                ",
"                                                                                                                                ",
"                                                                                                                                ",
"                                                                                                                                ",
"                                                                                                                                ",
"                                                                                                                                ",
"                                                                                                                                ",
"                                                                                                                                ",
"                                                                                                                                ",
"                                                                                                                                "
};
