/* XPM */
static char *result[] = {
/* columns rows colors chars-per-pixel */
"64 64 225 2 ",
"   c #000000",
".  c #060906",
"X  c #080B07",
"o  c #0A0D09",
"O  c #0D120D",
"+  c #11160E",
"@  c #0F1610",
"#  c #101610",
"$  c #141B14",
"%  c #181F16",
"&  c #192117",
"*  c #1B241B",
"=  c #1F291E",
"-  c #212B1F",
";  c #1F2920",
":  c #232D22",
">  c #263125",
",  c #283427",
"<  c #2A3629",
"1  c #2D3A2C",
"2  c #313E2D",
"3  c #313E31",
"4  c #33402F",
"5  c #354334",
"6  c #3A4736",
"7  c #3C4B3B",
"8  c #404F3C",
"9  c #43523E",
"0  c #3F4F40",
"q  c #445443",
"w  c #475847",
"e  c #4A5A46",
"r  c #4B5D4B",
"t  c #4F614E",
"y  c #53634C",
"u  c #59684F",
"i  c #4F6050",
"p  c #536552",
"a  c #576956",
"s  c #5B6B54",
"d  c #5B6D5A",
"f  c #5E705C",
"g  c #64745B",
"h  c #67775C",
"j  c #627562",
"k  c #667965",
"l  c #6C7D63",
"z  c #6A7D69",
"x  c #6F8064",
"c  c #6E816B",
"v  c #738365",
"b  c #73856B",
"n  c #77886C",
"m  c #7C8B6B",
"M  c #778A73",
"N  c #758974",
"B  c #7E9177",
"V  c #BDA21D",
"C  c #AA9826",
"Z  c #AC9C2C",
"A  c #B09B27",
"S  c #B39E26",
"D  c #A69A33",
"F  c #AB9D33",
"G  c #A79C39",
"H  c #A59C3D",
"J  c #B09E32",
"K  c #BBA225",
"L  c #B9A22B",
"P  c #ADA13B",
"I  c #B8A538",
"U  c #DCAC0D",
"Y  c #C9A61A",
"T  c #D5AA15",
"R  c #D9AC14",
"E  c #D4AB1B",
"W  c #D9B312",
"Q  c #D8B317",
"!  c #E2AC0B",
"~  c #EBB305",
"^  c #ECBC05",
"/  c #E4B20C",
"(  c #E7B80A",
")  c #F1BB02",
"_  c #E0AE11",
"`  c #E2B712",
"'  c #C3A523",
"]  c #CCAA25",
"[  c #C8A829",
"{  c #D1AB22",
"}  c #C3A935",
"|  c #ECC409",
" . c #F2C202",
".. c #F4CB03",
"X. c #F4CB0A",
"o. c #F7D607",
"O. c #E9C816",
"+. c #F0CD17",
"@. c #F6D916",
"#. c #F9E20A",
"$. c #FFFF0E",
"%. c #F9E313",
"&. c #FAE919",
"*. c #FDF819",
"=. c #F3D725",
"-. c #F6DE32",
";. c #FAEA28",
":. c #FCF42A",
">. c #F9E936",
",. c #FDF838",
"<. c #9F9941",
"1. c #A49E43",
"2. c #A39E49",
"3. c #ABA344",
"4. c #A9A347",
"5. c #A6A24B",
"6. c #ABA54C",
"7. c #B6A845",
"8. c #B3AA4C",
"9. c #A4A353",
"0. c #ABA653",
"q. c #ACA955",
"w. c #A5A55B",
"e. c #ADAB5C",
"r. c #B1AB53",
"t. c #B2AE5C",
"y. c #B5B05D",
"u. c #839373",
"i. c #879777",
"p. c #899874",
"a. c #8B9A75",
"s. c #82957B",
"d. c #8C9C7D",
"f. c #95A37C",
"g. c #ABAC65",
"h. c #AFB069",
"j. c #B7B466",
"k. c #B5B46B",
"l. c #BAB66B",
"z. c #BDBB74",
"x. c #B6B778",
"c. c #C2BE77",
"v. c #FAEA48",
"b. c #FDF845",
"n. c #FEFC4B",
"m. c #FBED58",
"M. c #FDFC54",
"N. c #FBF159",
"B. c #FEFD5B",
"V. c #C6C17B",
"C. c #FEFC64",
"Z. c #FCF469",
"A. c #FEFC6C",
"S. c #FEFE74",
"D. c #FCF678",
"F. c #FEFD7B",
"G. c #889B83",
"H. c #8EA28A",
"J. c #93A484",
"K. c #99A786",
"L. c #9BAA8B",
"P. c #99AB92",
"I. c #A2AE86",
"U. c #ABB58B",
"Y. c #A8B38C",
"T. c #BBBD86",
"R. c #A9B696",
"E. c #B3BD99",
"W. c #AABAA5",
"Q. c #BBC299",
"!. c #BAC4A5",
"~. c #BAC7B5",
"^. c #CAC683",
"/. c #C8C688",
"(. c #D2CC8B",
"). c #C7C99A",
"_. c #D2CE93",
"`. c #DAD498",
"'. c #E1D99D",
"]. c #FEFD83",
"[. c #FEFD8B",
"{. c #FEFE93",
"}. c #FEFE9B",
"|. c #C6CBA7",
" X c #CED1A9",
".X c #D4D5AB",
"XX c #DAD7A8",
"oX c #C4CDB5",
"OX c #CDD2B5",
"+X c #D7D9B4",
"@X c #DBDDBC",
"#X c #E3DCA4",
"$X c #E4DEAB",
"%X c #E0DEB6",
"&X c #E6E0AE",
"*X c #EBE2AD",
"=X c #FEFEA4",
"-X c #FFFEAC",
";X c #E4E1B5",
":X c #ECE4B3",
">X c #E5E2BA",
",X c #EBE6BA",
"<X c #EFE8BC",
"1X c #F1E8B5",
"2X c #F1EABB",
"3X c #FEFEB4",
"4X c #FEFEBB",
"5X c #D7DBC3",
"6X c #DEE0C5",
"7X c #E5E5C6",
"8X c #EEE9C3",
"9X c #EDEACB",
"0X c #F2ECC4",
"qX c #F2EDCA",
"wX c #FEFEC4",
"eX c #FFFECC",
"rX c #E8EAD4",
"tX c #F1EED4",
"yX c #F5F2D7",
"uX c #FFFED3",
"iX c #FFFEDB",
"pX c #FFFFE4",
"aX c #FFFFEB",
"sX c #FFFFF4",
"dX c #FFFFFB",
/* pixels */
"                                                    . . . . o o . o . . . . .                                                   ",
"                                              . o o O # $ $ $ $ $ $ $ $ @ @ O o . .                                             ",
"                                        . X O $ % * ; : > , < > , > > > : ; * * $ @ X X .                                       ",
"                                    X O $ % : : < 1 3 5 5 7 7 7 0 7 7 7 5 3 3 < > ; * % O X                                     ",
"                                . o $ * : < 3 6 7 q w r r i i p i p i i i w q 0 6 5 < : ; & O X                                 ",
"                            . o $ * : 1 5 7 q r i a d g k k z k z z k j j f d i r w 7 6 1 > = % O .                             ",
"                          . + & : 1 6 8 e p s h z b M B B s.G.d.G.G.G.G.B N N z j d p e q 6 2 > * $ o .                         ",
"                        O $ = , 2 8 e y g l v u.i.J.J.I.R.R.E.E.E.E.E.R.P.L.G.G.s.n l g s r 9 6 1 : & O .                       ",
"                    . o & - 2 6 q y g l u.u.f.I.U.).|..X.X%X%X$X@X@X@X@XOX|.!.E.P.J.i.B x g p e 8 4 - - + .                     ",
"                  . O & > 2 8 e s h v p.f.x.E.|.+X$X%X2X1X2X1X1X<X<X2X<X0X8X7X%XOX!.R.K.i.m l f y 9 6 < - + o                   ",
"                . + * , 5 9 y g l u.f.Y.E..X%X1X<X2X$X*X#X'.`.`.`.`.`.#X$X*X<X2X0X>X.X|.U.K.i.b h u 9 8 < - + .                 ",
"              . O & , 5 9 u h v p.I.E..X,X2X2X:X#X`.(.c.c.l.c.c.l.j.l.c.c.^.(.'.*X2X8X%X+X!.Y.d.u.h s 9 8 < - + .               ",
"              O * < 5 e s h u.a.U.).+X2X2X:XXX(.c.k.j.r.y.r.r.8.7.8.r.t.r.t.j.c.^.`.*X2X2X:X XE.f.u.l s e 6 1 - + .             ",
"            o % > 5 9 u h u.f.U. X%X2X<X#X^.c.j.r.r.8.8.7.8.} 7.} [ } 7.6.8.6.r.y.l.V.`.*X2X,XXXE.K.p.v s e 5 < * O             ",
"          . + - 4 9 y h m f.T..X,X2X$X`.c.j.r.r.8.7.} } [ { ] ] { E E { } P 3.6.6.r.y.z.(.*X1X2X+XQ.I.u.v u e 4 > % o           ",
"        . o - 1 8 y h m f.U..X,X2X$X(.k.e.0.3.1.3.7.} { R ` ` / ` _ / _ T ' J J P 3.8.r.j.V.'.*X2XXX).f.u.h u 9 4 - # .         ",
"        X % > 6 e g v a.U..X,X2X#X/.k.e.6.3.H F P L L ] W ~ ) X.) ~ ~ ~ / T K S J P P 8.8.y.V.`.:X2XXXE.f.u.h y 6 1 * O .       ",
"      . # ; 2 9 s l p.I.|.%X2X$X^.j.r.6.3.G F Z S K ' { U ~ ) ..o.X.) ) ~ ( T Y L L I I 7.7.r.V.'.:X2XXXU.f.v g e 4 : $ .       ",
"      o & , 7 r h u.I.E.%X2X:X(.k.q.6.1.P Z S K V Y T W ( ~ ) ..o.&.@.X.) ) / T Y V [ L I I 8.y.V.'.1X,X Xf.u.x u 9 1 - +       ",
"    . O - 2 q s b d.R.+X0X2X_.k.e.6.H F Z K V T Q O.=.=.=.@.@.o.#.;.;.;.o. .^ / W Q { Q { ] 7.8.y.V.#X2X+XQ.f.m g e 5 > % .     ",
"    o $ , 6 r k u.I.|.8X0X#Xc.e.6.P P Z Y Q O.=.v.m.Z.D.].D.Z.v.:.*.,.b.;.o.o. .| U W / ` Q } I 8.l.(.*X1X.XU.a.l p q 1 * O     ",
"    O = 1 q s v G.E.5X0X$X/.t.0.4.P K Q | %.;.M.F.=X4XeXuXiXuX4X[.M.b.M.M.:.%.#...| ^  .| ( Q I 7.r.c.'.1X&X).f.m g w 5 : $ X   ",
"  X $ > 5 e j B P.OX8X0X_.l.r.6.P K Q | %.:.M.D.[.{.=X3XwXiXpXaXpX4X[.S.A.M.,.,.;.X. . .o...` [ I 8.t.V.*X1XXXU.a.l p 0 < * o   ",
"  o % < 0 p z d.E.5XqX%XV.t.2.P [ ` | @.>.A.[.}.=X=X}.{.}.=XwXpXsXsXiX3X{.F.S.F.Z.;.o.o.o.o.| E I 7.q.l.`.2X;XQ.f.n d w 3 ; O . ",
". O ; 3 q d N K.oX7X0X`.k.r.6.} Q ~ @.v.].=X4XwXwX4X3X=X[.].].-XiXsXdXaXwX}.}.-X=XZ.;.o.%.%.X.U [ I 8.y.(.:X1X XI.u.j r 6 : $ . ",
". @ : 3 w j M P.OX9X,X/.t.0.7.[ W +.>.A.{.-X3X4XwXeXeXwX=XS.n.n.].eXaXdXaXeX4XuXuX}.v.@.%.%.X.! E I 7.t.c.#X2X+XU.p.z p 7 < % X ",
"o $ > 7 i k G.E.5X0X$Xc.e.8.7.{ W @.>.C.S.[.=XwXuXiXeX-X].n.*.$.,.].eXsXsXpXiXaXaX4XZ.;.&.%...~ R [ 7.q.l.`.2X>XQ.d.b a q 1 * o ",
"o % < 0 p k G.W.7X0XXXl.r.6.I { | o.%.;.n.F.3XuXiXwX=XS.n.:.$.$.:.M.}.uXsXsXaXsXsXeXF.>.&.@...) / { I 8.y.(.2X,X|.K.M d w 3 ; O ",
"o * 1 q a z G.oX8X0X_.j.0.1.I E / | ..%.n.{.wXuX4X{.S.B.n.,.,.,.,.n.F.-XiXaXsXdXdXuX].;.#.o... .( { I 8.e.^.:X2X.XP.N j r 5 : @ ",
"O ; 3 w d N H.oX9X1X^.g.6.3.L ] T / ..;.A.-XwX3X].A.S.S.S.F.S.C.B.B.A.[.3XiXsXdXdXuXD.&.o.o.....~ { I 8.e.V.&X0X+XP.s.j r 5 : $ ",
"O ; 3 w f N P.OX9X1X^.e.2.1.L S Y _ o.>.].4X-XS.C.F.}.-X-X3X-X}.F.S.S.F.{.eXaXdXdXuXA.#.o.o.o.o.~ E } 1.q.z.#X0X@XR.s.k i 5 > $ ",
"O ; 3 w f N P.OX0X$XV.g.6.H F J ' ( o.b.{.=XS.M.S.3XeXiXpXpXuXwX-X=X=X}.}.wXpXdXsX4Xm.o.#.&.;.X.~ R I 6.q.z.#X0X@XR.s.k i 7 > $ ",
"O ; 3 w f N L.OX8X:X/.e.2.G D J ] ^ #.n.].].n.C.-XiXaXsXdXsXpXiXiXiXiXeX4XuXaXdXaX=X>.#.&.,.>.o./ ] I 4.e.z.XX0X%XR.G.k t 7 > $ ",
"@ : 3 w f N L.OX8X:XT.e.5.1.C J Y ^ #.b.A.B.n.[.iXsXdXdXdXdXaXpXaXsXsXaXpXaXsXdXuXF.,.:.b.n.;.o./ K G 4.w.z.#X0X6XR.B k t 6 > $ ",
"O ; 3 w f N L.OX8X:X^.e.5.1.D Z Y ^ o.:.n.,.M.3XaXdXdXdXdXdXpXuXpXsXdXdXdXdXdXpX=XZ.,.b.C.N.;.| T J P 4.q.z.#XqX@XR.B z i 7 : $ ",
"O ; 3 w f N L.OX0X,X/.g.5.1.G Z Y ~ ..%.*.*.N.wXsXdXdXdXdXdXiX4X3XeXpXaXsXsXpXwX].M.b.C.A.N.=.` ' Z H 4.e.c.&X0X+XR.B k r 7 > @ ",
"o * 3 q d z L.oX9X2X_.h.9.2.G C Y ! ) ..o.&.B.eXsXdXdXdXdXdXaX4X{.{.-XwXuXuX4X{.C.B.C.S.A.>.| Y S D 1.5.e.^.:X0XOXP.N j r 5 : @ ",
"o * < 0 a z G.E.7X0X_.k.0.2.G D V ! ~ )  .o.N.4XsXdXdXdXdXdXaXeX}.S.S.].[.{.].A.A.A.F.A.v.+.W V C D P 9.h./.<X8XOXP.N f w 3 ; @ ",
"o $ < 7 i z G.R.6XqX#Xx.w.2.H D V U ! ! ~ X.v.-XaXdXdXdXdXdXsXiX4X{.S.B.B.B.C.C.A.S.A.>.+.W Y S C D 4.9.k.`.8X7X!.H.N a 0 3 ; o ",
". $ > 5 r j s.R.+XqX%X/.g.9.1.G K T T T U ( v.}.iXdXdXdXdXdXdXaXuX3X}.].S.C.C.A.A.M.:.o.^ Y V C D H 5.q.z.#X0X6XE.d.c p 0 < * o ",
". O ; 3 w d N P.OXrX0X_.k.w.2.1.S { [ ' T ! -.[.wXpXdXdXdXdXdXsXpXuX4X-X{.].F.A.n.;.o.| U Y S Z D 4.0.e.^.,X8X.XR.B k t 6 > % . ",
". O * 1 0 a b G.E.7XqX$XT.w.9.2.I [ [ S V ! +.Z.-XeXaXdXdXdXsXaXpXuXwX-X{.F.C.,.&.X.^ U Y V C Z H 5.q.k.`.2X>X|.K.n f w 5 : @ . ",
"  . $ , 7 r j s.R.OX9X0X_.h.w.5.3.} } A A Y ` m.[.-XwXpXsXsXaXiXeXwX-X[.C.,.:.%... .~ T Y K Z G P 9.e.V.XX0X%XE.d.v p 9 1 * o   ",
"  . @ : 5 w d n H.!.7XqXXXT.w.w.6.7.I J C V U =.Z.[.}.4XiXaXiXeX3X}.[.A.M.:.&.o...| W Y V Z F H 5.9.l._.1X,X|.I.B h t 6 < % X   ",
"    o * < 7 p z G.R.+XqX0X Xx.w.0.8.7.G C C Y _ =.N.A.F.}.wXeXwX=X].C.b.:.;.#.o.| W E ' L F H 3.0.y./.&X2X+XT.d.b s w 1 ; @ .   ",
"    . # : 5 w d z J.!.6XqX,X/.k.w.0.6.1.C C S T O.=.>.,.v.Z.[.=X}.F.N.:.%.o...^ / U ] L I P 3.0.e.c.`.1X;X).K.u.h y 7 > & o     ",
"      O * 1 8 u l i.L.oX7XqX$XT.h.w.9.2.<.D C S E ` +.@.%.&.>.m.Z.C.n.>.%.o. .~ U R ] } I 3.r.r.l._.1X<XXXU.a.v s q 5 ; # .     ",
"      . $ : 5 w g z G.R.+XqXqXXXT.k.w.9.<.H H F L ] T / | | | +.=.-.-.;.@... .~ U T [ } 7.q.e.l.(.*X<X$XQ.f.m h y 6 < * o       ",
"        O * < 7 t g n J.E.+X9X9XXXT.h.g.9.<.<.<.<.G } ' E R R R W Q O.O.+.O.| ( Q { } } 7.r.l.(.*X2X;X).h.u.h u 9 4 - O .       ",
"          # = 5 q y l B L.!.@XqX0XXX/.h.w.w.9.<.2.2.1.J L L K ' K K V Y { Q Q { ] } } 8.y.c.(.*X2X;X).U.p.v s 9 6 , % .         ",
"          o % > 5 w s c i.L.!.6X9XqX%X).x.g.w.9.2.2.2.1.G P P J P F P P P L I I 8.8.8.y.V.`.*X2X;X).U.a.v h e 8 < - + .         ",
"            O * < 6 e s c i.K.!.@X9XqX>X|.T.h.g.g.w.9.2.2.2.1.1.1.P 1.P 4.4.6.0.y.y.c.(.'.:X2X%X).Y.f.m h y 8 4 - + .           ",
"            . O * 1 7 e d l i.K.E.OX9XtX0X%X XT.h.g.w.w.w.9.9.9.9.9.9.9.0.q.g.h.c.^.'.*X2X:XXX).I.a.v h u 8 4 - $ o             ",
"              . $ - 1 7 e d l B H.R.oX7XtXyX9X5X X).T.x.h.g.g.g.e.g.t.h.k.z.V.(.'.*X2X2X%X.XQ.I.p.m h u 9 4 - & o               ",
"                o $ - 1 7 w s z M d.P.~.5X7XrXyXtX9X%X+X X)./././././._.`.XX$X,X2X,X,XXX).Y.f.u.v s y 9 4 > & o .               ",
"                  o $ - < 6 w y j c B H.P.!.5X6XrXtXyXyXtXqX8X8X8X<X8X0X0X0X0X8X%X.X|.U.f.p.n l s y 7 4 - & O .                 ",
"                    . # * > 5 9 r a j N B G.P.W.~.~.5XrXrXrXrXrXrXrXrX6X6X5X~.!.W.Y.J.u.m l f y 9 6 1 - $ o                     ",
"                      . O * : 1 7 q i d j N N G.P.H.W.W.~.~.~.~.oX~.~.~.!.W.R.H.G.B M z f p w 0 5 > = # o                       ",
"                        . O % ; > 3 7 w i a j z N N N H.H.H.H.P.P.P.H.H.G.s.B N z k d p e q 3 1 : & O .                         ",
"                            X @ * : 1 5 7 w i p j j z z N N N N N N N N c z j f a i w 7 5 3 : * $ o .                           ",
"                              . O # * : < 3 7 0 0 i i a a d d d d d d d a i i w q 7 3 1 > * % O .                               ",
"                                  . O @ * ; > 1 3 5 5 0 0 0 w 0 q w q 0 0 7 5 5 1 > ; * $ O X                                   ",
"                                    . . o @ $ * ; ; < < < 5 5 1 5 1 1 1 1 < : ; ; % # O X                                       ",
"                                . . . . . . o @ @ $ $ * * ; * ; * ; ; * * $ $ @ o X .                                           "
};
