/* XPM */
static char *d1c068c817104d11d8dbd7943380cd6cVGZa83zBo6oeMM6e[] = {
/* columns rows colors chars-per-pixel */
"64 64 3 1 ",
"  c #373737",
". c #505050",
"X c #646464",
/* pixels */
"XXXXXXXXXXXXXXXXXXXXXXXXXXXXXX  XXXXXXXXXXXXXXXXXXXXXXXXXXXXXX  ",
"XXXXXXXXXXXXXXXXXXXXXXXXXXXXXX  XXXXXXXXXXXXXXXXXXXXXXXXXXXXXX  ",
"XX............................  XX............................  ",
"XX............................  XX............................  ",
"XX............................  XX............................  ",
"XX............................  XX............................  ",
"XX............................  XX............................  ",
"XX............................  XX............................  ",
"XX............................  XX............................  ",
"XX............................  XX............................  ",
"XX............................  XX............................  ",
"XX............................  XX............................  ",
"XX............................  XX............................  ",
"XX............................  XX............................  ",
"XX............................  XX............................  ",
"XX............................  XX............................  ",
"XX............................  XX............................  ",
"XX............................  XX............................  ",
"XX............................  XX............................  ",
"XX............................  XX............................  ",
"XX............................  XX............................  ",
"XX............................  XX............................  ",
"XX............................  XX............................  ",
"XX............................  XX............................  ",
"XX............................  XX............................  ",
"XX............................  XX............................  ",
"XX............................  XX............................  ",
"XX............................  XX............................  ",
"XX............................  XX............................  ",
"XX............................  XX............................  ",
"                                                                ",
"                                                                ",
"XXXXXXXXXXXXXXXXXXXXXXXXXXXXXX  XXXXXXXXXXXXXXXXXXXXXXXXXXXXXX  ",
"XXXXXXXXXXXXXXXXXXXXXXXXXXXXXX  XXXXXXXXXXXXXXXXXXXXXXXXXXXXXX  ",
"XX............................  XX............................  ",
"XX............................  XX............................  ",
"XX............................  XX............................  ",
"XX............................  XX............................  ",
"XX............................  XX............................  ",
"XX............................  XX............................  ",
"XX............................  XX............................  ",
"XX............................  XX............................  ",
"XX............................  XX............................  ",
"XX............................  XX............................  ",
"XX............................  XX............................  ",
"XX............................  XX............................  ",
"XX............................  XX............................  ",
"XX............................  XX............................  ",
"XX............................  XX............................  ",
"XX............................  XX............................  ",
"XX............................  XX............................  ",
"XX............................  XX............................  ",
"XX............................  XX............................  ",
"XX............................  XX............................  ",
"XX............................  XX............................  ",
"XX............................  XX............................  ",
"XX............................  XX............................  ",
"XX............................  XX............................  ",
"XX............................  XX............................  ",
"XX............................  XX............................  ",
"XX............................  XX............................  ",
"XX............................  XX............................  ",
"                                                                ",
"                                                                "
};
