/* XPM */
static char *result[] = {
/* columns rows colors chars-per-pixel */
"64 64 4 1 ",
"  c black",
". c #AEAEAE",
"X c gray87",
"o c white",
/* pixels */
"                                                                ",
"                                                                ",
"                                                                ",
"                                                                ",
"        ....    ....    ....        XXXX    XXXX    XXXX        ",
"        ....    ....    ....        XXXX    XXXX    XXXX        ",
"        ....    ....    ....        XXXX    XXXX    XXXX        ",
"        ....    ....    ....        XXXX    XXXX    XXXX        ",
"    ....    ....    ....    ........    XXXX    XXXX    XXXX    ",
"    ....    ....    ....    ........    XXXX    XXXX    XXXX    ",
"    ....    ....    ....    ........    XXXX    XXXX    XXXX    ",
"    ....    ....    ....    ........    XXXX    XXXX    XXXX    ",
"        ....    ....    ....        XXXX    XXXX    XXXX        ",
"        ....    ....    ....        XXXX    XXXX    XXXX        ",
"        ....    ....    ....        XXXX    XXXX    XXXX        ",
"        ....    ....    ....        XXXX    XXXX    XXXX        ",
"    ....    ....    ....    XXXXXXXX    XXXX    XXXX    XXXX    ",
"    ....    ....    ....    XXXXXXXX    XXXX    XXXX    XXXX    ",
"    ....    ....    ....    XXXXXXXX    XXXX    XXXX    XXXX    ",
"    ....    ....    ....    XXXXXXXX    XXXX    XXXX    XXXX    ",
"        ....    ....    ....        XXXX    XXXX    XXXX        ",
"        ....    ....    ....        XXXX    XXXX    XXXX        ",
"        ....    ....    ....        XXXX    XXXX    XXXX        ",
"        ....    ....    ....        XXXX    XXXX    XXXX        ",
"    ....    ....    ....    oooooooo    XXXX    XXXX    XXXX    ",
"    ....    ....    ....    oooooooo    XXXX    XXXX    XXXX    ",
"    ....    ....    ....    oooooooo    XXXX    XXXX    XXXX    ",
"    ....    ....    ....    oooooooo    XXXX    XXXX    XXXX    ",
"        ....    XXXX    oooo        oooo    XXXX    ....        ",
"        ....    XXXX    oooo        oooo    XXXX    ....        ",
"        ....    XXXX    oooo        oooo    XXXX    ....        ",
"        ....    XXXX    oooo        oooo    XXXX    ....        ",
"        ....    XXXX    oooo        oooo    XXXX    ....        ",
"        ....    XXXX    oooo        oooo    XXXX    ....        ",
"        ....    XXXX    oooo        oooo    XXXX    ....        ",
"        ....    XXXX    oooo        oooo    XXXX    ....        ",
"    oooo    oooo    oooo    oooooooo    ....    ....    ....    ",
"    oooo    oooo    oooo    oooooooo    ....    ....    ....    ",
"    oooo    oooo    oooo    oooooooo    ....    ....    ....    ",
"    oooo    oooo    oooo    oooooooo    ....    ....    ....    ",
"        oooo    oooo    oooo        ....    ....    ....        ",
"        oooo    oooo    oooo        ....    ....    ....        ",
"        oooo    oooo    oooo        ....    ....    ....        ",
"        oooo    oooo    oooo        ....    ....    ....        ",
"    oooo    oooo    oooo    XXXXXXXX    ....    ....    ....    ",
"    oooo    oooo    oooo    XXXXXXXX    ....    ....    ....    ",
"    oooo    oooo    oooo    XXXXXXXX    ....    ....    ....    ",
"    oooo    oooo    oooo    XXXXXXXX    ....    ....    ....    ",
"        oooo    oooo    oooo        ....    ....    ....        ",
"        oooo    oooo    oooo        ....    ....    ....        ",
"        oooo    oooo    oooo        ....    ....    ....        ",
"        oooo    oooo    oooo        ....    ....    ....        ",
"    oooo    oooo    oooo    ........    ....    ....    ....    ",
"    oooo    oooo    oooo    ........    ....    ....    ....    ",
"    oooo    oooo    oooo    ........    ....    ....    ....    ",
"    oooo    oooo    oooo    ........    ....    ....    ....    ",
"        oooo    oooo    oooo        ....    ....    ....        ",
"        oooo    oooo    oooo        ....    ....    ....        ",
"        oooo    oooo    oooo        ....    ....    ....        ",
"        oooo    oooo    oooo        ....    ....    ....        ",
"                                                                ",
"                                                                ",
"                                                                ",
"                                                                "
};
