/* XPM */
static char *result[] = {
/* columns rows colors chars-per-pixel */
"64 64 3 1 ",
"  c #A5774E",
". c #BB9463",
"X c white",
/* pixels */
" .........   .........   .........   .........   ......   ......",
" .........   .........   .........   .........   ......   ......",
" .........   .........   .........   .........   ......   ......",
" .........   .........   .........   .........   ......   ......",
" .........   .........   .........   .........   ......   ......",
" .........   .........   .........   .........   ......   ......",
"             .........               .........            ......",
"             .........               .........            ......",
"             .........               .........            ......",
" .........   .........   .........   .........   ......   ......",
" .........   .........   .........   .........   ......   ......",
" .........   .........   .........   .........   ......   ......",
" .........   .........   .........   .........   ......   ......",
" .........   .........   .........   .........   ......   ......",
" .........   .........   .........   .........   ......   ......",
" .........   .........   .........   .........   ......   ......",
" .........   .........   .........   .........   ......   ......",
" .........   .........   .........   .........   ......   ......",
" .........   .........   .........   .........   ......   ......",
" .........   .........   .........   .........   ......   ......",
" .........   .........   .........   .........   ......   ......",
" .........   .........   .........   .........   ......   ......",
" .........   .........   .........   .........   ......   ......",
" .........   .........   .........   .........   ......   ......",
" .........   .........   .........   .........   ......   ......",
" .........   .........   .........   .........   ......   ......",
" .........   .........   .........   .........   ......   ......",
" .........               .........               ......         ",
" .........               .........               ......         ",
" .........               .........               ......         ",
" .........   .........   .........   .........   ......   ......",
" .........   .........   .........   .........   ......   ......",
" .........   .........   .........   .........   ......   ......",
" .........   .........   .........   .........   ......   ......",
" .........   .........   .........   .........   ......   ......",
" .........   .........   .........   .........   ......   ......",
" .........   .........   .........   .........   ......   ......",
" .........   .........   .........   .........   ......   ......",
" .........   .........   .........   .........   ......   ......",
" .........   .........   .........   .........   ......   ......",
" .........   .........   .........   .........   ......   ......",
" .........   .........   .........   .........   ......   ......",
" .........   .........   .........   .........   ......   ......",
" .........   .........   .........   .........   ......   ......",
" .........   .........   .........   .........   ......   ......",
" .........   .........   .........   .........   ......   ......",
" .........   .........   .........   .........   ......   ......",
" .........   .........   .........   .........   ......   ......",
" .........   .........   .........   .........   ......   ......",
" .........   .........   .........   .........   ......   ......",
" .........   .........   .........   .........   ......   ......",
" .........   .........   .........   .........   ......   ......",
" .........   .........   .........   .........   ......   ......",
" .........   .........   .........   .........   ......   ......",
"             .........               .........            ......",
"             .........               .........            ......",
"             .........               .........            ......",
" .........   .........   .........   .........   ......   ......",
" .........   .........   .........   .........   ......   ......",
" .........   .........   .........   .........   ......   ......",
" .........   .........   .........   .........   ......   ......",
" .........   .........   .........   .........   ......   ......",
" .........   .........   .........   .........   ......   ......",
" .........   .........   .........   .........   ......   ......"
};
