/* XPM */
static char *result[] = {
/* columns rows colors chars-per-pixel */
"51 73 19 1 ",
"  c #9F9F9F",
". c #A4A4A4",
"X c #A9A9A9",
"o c #B4B4B4",
"O c gray77",
"+ c #CACACA",
"@ c gray81",
"# c gray83",
"$ c #DADADA",
"% c #DFDFDF",
"& c #E4E4E4",
"* c #EAEAEA",
"= c #EFEFEF",
"- c #F1F1F1",
"; c gray95",
": c #F3F3F3",
"> c #F4F4F4",
", c gray96",
"< c None",
/* pixels */
"<<<<<<<<<<<<<<<<<<<<;---------:<<<<<<<<<<<<<<<<<<<<",
"<<<<<<<<<<<<<<>,,,,,,,,,,,,,,,,,,,,,;:<<<<<<<<<<<<<",
"<<<<<<<<<<<;;,,,,,,,,,,,,,,,,,,,,,,,,,,><<<<<<<<<<<",
"<<<<<<<<<<:,,,,,,,,,,,,,,,,,,,,,,,,,,,,,,:<<<<<<<<<",
"<<<<<<<<:,,,,,,,,,,,,,,,,,,,,,,,,,,,,,,,,,;<<<<<<<<",
"<<<<<<<>,,,,,,,,,,,,,,,,,,,,,,,,,,,,,,,,,,,,<<<<<<<",
"<<<<<<:,,,,,,,,,,,,,,,,,,,,,,,,,,,,,,,,,,,,,,<<<<<<",
"<<<<<:,,,,,,,,,,,,,,,,,,,,,,,,,,,,,,,,,,,,,,,;<<<<<",
"<<<<<,,,,,,,,,,,,,,,,,,,,,,,,,,,,,,,,,,,,,,,,,><<<<",
"<<<<;,,,,,,,,,,,,,,,,,,,,,,,,,,,,,,,,,,,,,,,,,,:<<<",
"<<<-,,,,,,,,,,,,,,,,,,,,,,,,,,,,,,,,,,,,,,,,,,,,<<<",
"<<<,,,,,,,,,,,,,,,,,,,,,,,,,,,,,,,,,,,,,,,,,,,,,-<<",
"<<-,,,,,,,,,,,,,,,,,,,,,,,,,,,,,,,,,,,,,,,,,,,,,,<<",
"<<,,,,,,,,,,,,,,,,,,,,,,,,,,,,,,,,,,,,,,,,,,,,,,,:<",
"<<,,,,,,,,,,,,,,,,,,,,,,,,,,,,,,,,,,,,,,,,,,,,,,,;<",
"<:,,,,,,,,,,,,,,,,,,,,,,,,,,,,,,,,,,,,,,,,,,,,,,,,<",
"<-,,,,,,,,,,,,,,,,,,,,,,,,,,,,,,,,,,,,,,,,,,,,,,,,<",
"<,,,,,,,,,,,,,,,,,,,,,,,,,,,,,,,,,,,,,,,,,,,,,,,,,:",
"<,,,,,,,,,,,,,,,,,,,,,,,,,,,,,,,,,,,,,,,,,,,,,,,,,-",
"<,,,,,,,,,,,,,,,,,,,,,,,,,,,,,,,,,,,,,,,,,,,,,,,,,-",
"<,,,,,,,,,Oooo&,,,,,,,,,,,,,,,Oooo&,,,,,,,,,,,,,,,-",
"<,,,,,,,,@    X=,,,,,,,,,,,,,@    X=,,,,,,,,,,,,,,-",
"<,,,,,,,%      o,,,,,,,,,,,,%      o,,,,,,,,,,,,,,-",
"<,,,,,,,+       ,,,,,,,,,,,,+       ,,,,,,,,,,,,,,-",
"<,,,,,,,@      .,,,,,,,,,,,,@      .,,,,,,,,,,,,,,-",
"<,,,,,,,*.     O,,,,,,,,,,,,*.     O,,,,,,,,,,,,,,-",
"<,,,,,,,,&X   O,,,,,,,,,,,,,,&X   O,,,,,,,,,,,,,,,-",
"<,,,,,,,,,=%%&,,,,,,,,,,,,,,,,=%%&,,,,,,,,,,,,,,,,-",
"<,,,,,,,,,,,,,,,,,,,,,,,,,,,,,,,,,,,,,,,,,,,,,,,,,-",
"<,,,,,,,,,,,,,,$+++++++++++++@%,,,,,,,,,,,,,,,,,,,-",
"<,,,,,,,,,,,,*.                #,,,,,,,,,,,,,,,,,,-",
"<,,,,,,,,,,,,%                 o,,,,,,,,,,,,,,,,,,-",
"<,,,,,,,,,,,,=.                #,,,,,,,,,,,,,,,,,,-",
"<,,,,,,,,,,,,,=+++++++++++++++$,,,,,,,,,,,,,,,,,,,-",
"<,,,,,,,,,,,,,,,,,,,,,,,,,,,,,,,,,,,,,,,,,,,,,,,,,-",
"<,,,,,,,,,,,,,,,,,,,,,,,,,,,,,,,,,,,,,,,,,,,,,,,,,-",
"<,,,,,,,,,,,,,,,,,,,,,,,,,,,,,,,,,,,,,,,,,,,,,,,,,-",
"<,,,,,,,,,,,,,,,,,,,,,,,,,,,,,,,,,,,,,,,,,,,,,,,,,-",
"<,,,,,,,,,,,,,,,,,,,,,,,,,,,,,,,,,,,,,,,,,,,,,,,,,-",
"<,,,,,,,,,,,,,,,,,,,,,,,,,,,,,,,,,,,,,,,,,,,,,,,,,-",
"<,,,,,,,,,,,,,,,,,,,,,,,,,,,,,,,,,,,,,,,,,,,,,,,,,-",
"<,,,,,,,,,,,,,,,,,,,,,,,,,,,,,,,,,,,,,,,,,,,,,,,,,-",
"<,,,,,,,,,,,,,,,,,,,,,,,,,,,,,,,,,,,,,,,,,,,,,,,,,-",
"<,,,,,,,,,,,,,,,,,,,,,,,,,,,,,,,,,,,,,,,,,,,,,,,,,-",
"<,,,,,,,,,,,,,,,,,,,,,,,,,,,,,,,,,,,,,,,,,,,,,,,,,-",
"<,,,,,,,,,,,,,,,,,,,,,,,,,,,,,,,,,,,,,,,,,,,,,,,,,-",
"<,,,,,,,,,,,,,,,,,,,,,,,,,,,,,,,,,,,,,,,,,,,,,,,,,-",
"<,,,,,,,,,,,,,,,,,,,,,,,,,,,,,,,,,,,,,,,,,,,,,,,,,-",
"<,,,,,,,,,,,,,,,,,,,,,,,,,,,,,,,,,,,,,,,,,,,,,,,,,-",
"<,,,,,,,,,,,,,,,,,,,,,,,,,,,,,,,,,,,,,,,,,,,,,,,,,-",
"<,,,,,,,,,,,,,,,,,,,,,,,,,,,,,,,,,,,,,,,,,,,,,,,,,-",
"<,,,,,,,,,,,,,,,,,,,,,,,,,,,,,,,,,,,,,,,,,,,,,,,,,-",
"<,,,,,,,,,,,,,,,,,,,,,,,,,,,,,,,,,,,,,,,,,,,,,,,,,-",
"<,,,,,,,,,,,,,,,,,,,,,,,,,,,,,,,,,,,,,,,,,,,,,,,,,-",
"<,,,,,,,,,,,,,,,,,,,,,,,,,,,,,,,,,,,,,,,,,,,,,,,,,-",
"<,,,,,,,,,,,,,,,,,,,,,,,,,,,,,,,,,,,,,,,,,,,,,,,,,-",
"<,,,,,,,,,,,,,,,,,,,,,,,,,,,,,,,,,,,,,,,,,,,,,,,,,<",
"<,,,,,,,,,,,,,,,,,,,,,,,,,,,,,,,,,,,,,,,,,,,,,,,,,<",
"<>,,,,,,,,,,,,,,,,,,,,,,,,,,,,,,,,,,,,,,,,,,,,,,,,<",
"<<,,,,,,,,,,,,,,,,,,,,,,,,,,,,,,,,,,,,,,,,,,,,,,,,<",
"<<,,,,,,,,,,,,,,,,,,,,,,,,,,,,,,,,,,,,,,,,,,,,,,,:<",
"<<:,,,,,,,,,,,,,,,,,,,,,,,,,,,,,,,,,,,,,,,,,,,,,,<<",
"<<<,,,,,,,,,,,,,,,,,,,,,,,,,,,,,,,,,,,,,,,,,,,,,:<<",
"<<<<,,,,,,,,,,,,,,,,,,,,,,,,,,,,,,,,,,,,,,,,,,,,<<<",
"<<<<>,,,,,,,,,,,,,:,,,,,,,,,,,,,;;,,,,,,,,,,,,,<<<<",
"<<<<<,,,,,,,,,,,,:<:,,,,,,,,,,,,<<,,,,,,,,,,,,><<<<",
"<<<<<;,,,,,,,,,,,<<<,,,,,,,,,,,:<<:,,,,,,,,,,,<<<<<",
"<<<<<<:,,,,,,,,,:<<<<,,,,,,,,,;<<<<;,,,,,,,,,<<<<<<",
"<<<<<<<,,,,,,,,;<<<<<>,,,,,,,,<<<<<<,,,,,,,,-<<<<<<",
"<<<<<<<;,,,,,,,<<<<<<<;,,,,,,;<<<<<<;,,,,,,;<<<<<<<",
"<<<<<<<<-,,,,,<<<<<<<<<,,,,,><<<<<<<<-,,,,,<<<<<<<<",
"<<<<<<<<<>,,,:<<<<<<<<<<,,,;<<<<<<<<<<>,,,:<<<<<<<<",
"<<<<<<<<<<<<<<<<<<<<<<<<<<<<<<<<<<<<<<<<<<<<<<<<<<<"
};
