/* XPM */
static char *result[] = {
/* columns rows colors chars-per-pixel */
"64 64 195 2 ",
"   c #000000",
".  c #080808",
"X  c #0B0B0B",
"o  c #16170D",
"O  c #0F0F10",
"+  c #100F11",
"@  c #131313",
"#  c #181816",
"$  c #181719",
"%  c #1C1C1C",
"&  c #211F1D",
"*  c #1E2111",
"=  c #21211E",
"-  c #2E2F1A",
";  c #353318",
":  c #201F20",
">  c #242424",
",  c #2A2926",
"<  c #272728",
"1  c #2C2B2B",
"2  c #312F2D",
"3  c #32312E",
"4  c #2F2F31",
"5  c #333333",
"6  c #383736",
"7  c #373836",
"8  c #373738",
"9  c #373839",
"0  c #3B3B3B",
"q  c #403F1A",
"w  c #403F3D",
"e  c #504D18",
"r  c #6B651A",
"t  c #42413E",
"y  c #7D7520",
"u  c #444443",
"i  c #484747",
"p  c #494946",
"a  c #4B4B4A",
"s  c #504E4A",
"d  c #5D5C42",
"f  c #51514D",
"g  c #4E4F50",
"h  c #545453",
"j  c #595653",
"k  c #5C5954",
"l  c #5C5B5B",
"z  c #605E5B",
"x  c #64625D",
"c  c #6A665E",
"v  c #6D695F",
"b  c #5F6060",
"n  c #636363",
"m  c #686666",
"M  c #6B6965",
"N  c #6C6B6A",
"B  c #716E64",
"V  c #716F6C",
"C  c #74726B",
"Z  c #7B776C",
"A  c #747472",
"S  c #787773",
"D  c #7D7C75",
"F  c #7D7C7B",
"G  c #9C7D1B",
"H  c #8E6B28",
"J  c #A77427",
"K  c #8B6F4A",
"L  c #866D53",
"P  c #89796C",
"I  c #817E76",
"U  c #817F7A",
"Y  c #998C1D",
"T  c #BC8E1A",
"R  c #93813F",
"E  c #AE9E23",
"W  c #BEA923",
"Q  c #C7890C",
"!  c #CAA51E",
"~  c #D5AF1F",
"^  c #E4A812",
"/  c #EEB710",
"(  c #CEB121",
")  c #ECCC1C",
"_  c #FACB14",
"`  c #FFDD16",
"'  c #FEDE18",
"]  c #A68442",
"[  c #9A8765",
"{  c #858174",
"}  c #84837C",
"|  c #8C877B",
" . c #8C897D",
".. c #918D7E",
"X. c #A28A6F",
"o. c #858483",
"O. c #898684",
"+. c #8C8A83",
"@. c #8D8C8A",
"#. c #918D85",
"$. c #908F89",
"%. c #949185",
"&. c #94928B",
"*. c #9A978C",
"=. c #9C988A",
"-. c #959491",
";. c #999791",
":. c #9C9B94",
">. c #9E9D9A",
",. c #A19D8D",
"<. c #A19E95",
"1. c #A19F9A",
"2. c #A5A195",
"3. c #A9A493",
"4. c #A5A39D",
"5. c #AAA69B",
"6. c #ACA99A",
"7. c #B2AE9E",
"8. c #B9B39E",
"9. c #A4A4A3",
"0. c #A8A6A3",
"q. c #ACAAA3",
"w. c #ACABAA",
"e. c #B2AEA5",
"r. c #B1AFAA",
"t. c #AFB0AA",
"y. c #B5B1A4",
"u. c #BBB5A4",
"i. c #BDB9A5",
"p. c #B5B3AC",
"a. c #B9B6AE",
"s. c #BEBBAD",
"d. c #B3AEB1",
"f. c #B7B5B4",
"g. c #B9B7B2",
"h. c #BDBBB4",
"j. c #BDBDBA",
"k. c #C4BEAB",
"l. c #C1BEB4",
"z. c #C0BEBA",
"x. c #C7C0AC",
"c. c #CAC3AE",
"v. c #C4C0B5",
"b. c #CBC5B3",
"n. c #CEC9B4",
"m. c #C4C2BC",
"M. c #CAC6BC",
"N. c #CECABB",
"B. c #D1CBB6",
"V. c #D2CDBC",
"C. c #D6D1BE",
"Z. c #DAD2BE",
"A. c #BEBEC1",
"S. c #C6C5C1",
"D. c #C8C7C4",
"F. c #CCCAC5",
"G. c #CDCCC9",
"H. c #D2CEC3",
"J. c #D0CFC9",
"K. c #D6D1C3",
"L. c #DAD5C5",
"P. c #DED9C6",
"I. c #D5D2CC",
"U. c #DBD6CA",
"Y. c #DEDACC",
"T. c #D3D3D2",
"R. c #DDDAD4",
"E. c #D6D5D8",
"W. c #DEDDDB",
"Q. c #E2DCC6",
"!. c #E1DCCD",
"~. c #E2DED3",
"^. c #E1DFD9",
"/. c #E6E1CF",
"(. c #E8E1CC",
"). c #E5E1D5",
"_. c #EAE4D6",
"`. c #E6E3DA",
"'. c #E9E6DC",
"]. c #ECE9DD",
"[. c #F1ECDF",
"{. c #DEDEE0",
"}. c #E5E4E2",
"|. c #EAE7E1",
" X c #EDEAE3",
".X c #EDEDEB",
"XX c #F1EEE5",
"oX c #F1EEE9",
"OX c #F3F1E7",
"+X c #F4F2EC",
"@X c #F9F6EF",
"#X c #F5F4F2",
"$X c #F9F7F1",
"%X c #FCFAF5",
"&X c #FFFFFD",
/* pixels */
"                                                                                                                                ",
"                                                                                                                                ",
"                                                                                                                                ",
"                                                                                                                                ",
"                                                                                                                                ",
"                                                          . , .                                                                 ",
"                                                      $ l :.K.%.@                                                               ",
"                                                  > F M.<.l D C.y.>                                                             ",
"                                              1 o.I.&Xa.> @ 9 M V.<.                                                            ",
"                                          5 -.}.%X X+XA < u u 0 I C.3                                                           ",
"                                      w >.W.%X%X X@XI.j u 5 1 % l B.Z                                                           ",
"                                  a t..X&X|.@X+X`. X~.m % 1 1 u u 6.i.X   .                                                     ",
"                            X h f.%X&X#X|. X+XoXL.R.+X:.5 u a u , j P.u         @ : < 4 > $ X                                   ",
"                        X N S..X&X+X+X+X).). X X).L.XXI.h 9 1 : > , u.5.X p O.w.G.W.}.}.W.F.2.&.N ,                             ",
"                      3 G.$X'.).#X+XoX|.`.). X X XC.).OXx > , 5 l o.V.2.o.&X&X&X&X%X#X%XoXXXn.'.&X.X0.>                         ",
"                      g.XXI.b. XoX'. X X XW.|. XoX!.U.OXq.u A q.n.(.e.o >.&X.X+X+X+X+X#X X`.b.).+X#X&X{ ;                       ",
"                    b OXs.).#.h.+X|. X].XX'.). X`.'.L. X).v.P.P.k...=   4.&X XXX X X X X'.).b.~.+X+X#X[ ) Y o                   ",
"                  @ D.OX..a.k.g.@X'. X X|. X`.].C.L.L. XY.Z.c.Z 2       %.!.H.|. X X X X).).c.Y. X X&XZ Q ` ~ e                 ",
"                  X g.OXs.a.+X X|. X].|.XX`.K.R.H.k.Y.I.8.D ,           } P.V.'. X X X X`.).b.L. X`. XJ.P J _ ` r               ",
"                    M +X XXX|. X X X|.@XS.l l h h a h a t * % > 1 > 1 # C L.V._.oX X X X'.`.Y.~..X+XoXoXoXd.H ^ ` r             ",
"                    < T.oX|.|. X X X+XD.f l m n n n n n n N N N m M N n V ).!.~.|. X X X~.U.'.XX`.6.v.oX'.$XT.v ^ ' e           ",
"                      :.@X|. X X X).).x u b l j u i i a i i i u i a u u n U.C.K.'.XX~.!.`.~.~.'.%.w u m.+X`.+X}.L ^ ) -         ",
"    .                 p oX'.'.).!.L.F.j 0 a u w :.F.G.G.G.J.F.M.I.h.p.l > M.P.V.). X~.`. X X XXXO.9 0 p.+X X|.@XW.y _ W X       ",
"  @ 0 5 > .             t.@XY.I.l.4.A.h < 9 : @.&X%X&X&X&X&XOX$X|.u k K.& ;._.V.Y. X`.|. X X|.XXY.&.q.'.!.'. X`.#XG.H R p.u     ",
"    1 u 0 9 < 9 u 0 7 5 l N 4.j.j..X&XA 5 a 4 >.OXD.m.m.m.R.`.oXm.  @ v.9 p '.!.]._.L.K.!._.[.]. X@X+X X'.~.'.+X.X#XA.{.&X9.    ",
"      0 u 7 5 f :.W.|.W.F 1 < V o.S A 5 0 h 0 4.K.h j l a m ). Xm.X # v.t @ e.L.%.C c x k v %.b./.'.|. X X].).v.J..X%X#X5.d .   ",
"    @ $ u t 5 5 5 } +Xb + : 1 % $ 0 w 0 5 7 < &.j.g m m h g K.L.l.X @ v.u 5 t w 4 < t i , : w h | b.). X XOX6.t s F.%Xf.G ( X   ",
"  @ 1 5 D.F.M.h.m.W.@.> 4 9 l g g b n n n l 9 *.v.l m m l j L.L.k.. # v.t 0 2 @ < 1 0 > w 5 1 a g k u.!.|.OX} 0 5 e.%X{.] _ q   ",
"  1 > o.&X%X@XOX&X#X9 > < u l l l l h l h l u *.h.h M m l g K.L.k.X # v.9 > # @ % i n 5 l g * # 9 w t i.!.oXH.V } |.|.%X#./ y   ",
". 1 % f.%X#X|.'.&Xw.4 8 < 0 i t u w u u g g 9 :.K.i i a 0 n ~.'.z.+ % z.0 @ @ 1 1 u l i l i 4 5 # > = p b.`..XOX].`.|.%Xd.T E   ",
"X 1 < F.oX X`.`.%XF > > < 5 @ > < 1 4 4 4 w 4 4.].v.a.a.p.I.).].z.X # b.0 $ , 1 < 5 7 } 4.;.t 2 5 # , > { P.]. X'.~. X+XE.J ( . ",
". % 1 `.+XoX~.`.#Xb $ 4 % 1 1 5 4 < u 4 m q.: N Q.C.P.L.P.C.B.B.!.z V K.> 6 5 1 5 p 4 q.:.4.U.f 4 4 # g j k.`. X|.~.`..X.XK ~ o ",
"  # 0 a.p.h.).'..Xg : h * $ 4 u u u 0 3 V.[.,.3 } 3.3.2.3.3.3.3.e.u.p.j @ w u u t 1 N OX2.M M.N.9 5 $ t a %.).|.XXXXXXXX#X[ ~ - ",
"  . 0 I M D ).|..Xa : n 0 O 1 1 1 1 > @.].x.Z.I l @.U o.A V F F O.z $ % > 1 1 1 1 5 F.H.t 7.%.].I f a u f M Q.'.|.=.} ~.&XX.~ - ",
"  + 9 a.e.g.R.'.+Xg % b l A W.I.J.J.T.'.L.c.k.+.D &.D @.z.r.p.z.:.S ;.w 0.W.I.F.I.R.XXM   { } 1.2.h h 0 h j B.XXy.w 5 I &XX.! - ",
"  < 6 ).+X+X).`.#Xl @ w 8 @.%X+X~.].oX_.L.B.,.p.f 9.u R.&X'.#X&Xb @.N l I.$X XY.OX X_.t   x N } <.5 5 < l j c.XXl.u 5 $.&XX.! & ",
"  1 > F. X|.).).&XA O : X o.+X|.!._.|.).P.i.*.l z h N &X^.`.%X4.u } a w.f.+X`.L. X'.'.i   k <.'.&.z l a l j n.'.OXa.4. X#XL G + ",
"  > @ r.+X|.`.).%Xw.X : O O.$X`.K.'. X`.!. .m.-.z.$.W.$X~..X%X1.f.;.F.q.h.$XR.U.oX|.'.t   C 5.N.j u 8 > 5 z Z.]. XOXOXoX#Xf.%.$ ",
"  $ + D %XOXOX'.$X.X< $ X U OXL.L.`.).).K.+.+X$X+X$X.X~.~.#X X#X+X$X%X:.a.XXL.Y.).(._.p % y.2.M 1 5 @ > < { !.]. X`.W.@X#X&XT.+ ",
"  X $ 5 v.v.h.s.p.E.@.  @ B C.V.L.c.c.P.K.#.}.}.'.|.|.`.!.|.|.'.|.`.XX<.=.L.Y.B.c.c.).s = v.M > 9 % : 5 1 u.~.XX X).U. XoX%X&.  ",
"    @ # 0 0 1 1 1 Z |.h   D [.K.!.!.!.~.H.#.'.|.|.|.|.~.~.|.|.|. X|.OX2.e._.!.~.Y.!.'.t   } C , , $ 1 > v B.).'.'.Y.].oX|.].g   ",
"      u i 8 8 x q.L.`.|.F F L.V.U.n.B.U.K.#.'.|.'.`.].~.U.|.|.|.|.|.+X2.,.!.Q.V.b.B.^.u   c n @ @ > , 5 7.Y.'.`.R.`.oX X%XD.@   ",
"    1 u 0 5 % 1 9 3 2 5 5 } ).K.!.L.K.!.H.#. X'.L.Y.Y.K.K.!.!.~.U.`.OX2.6._.Q.U.K.L._.i   n M : u 5 # ..(.'. X X X+XK.x.C.k     ",
"  X 5 1 @                 C (.C.Y.H.V.!.V.+. X~.~.|.|. X X|. X X~.).OX:.5.~.U.L.C.K._.u   C 1.>.@.>.M z I.#XoX X X XL./.6.0 .   ",
"                          C Y.V.P.B.n.P.L.#. X).~.|.|. X X X|.XX~.).+X<.,.Q.U.H.n.B._.s & 7.1.J.I.}.4.o.@.>.D.}.&X'.C.b.C U     ",
"                      .   o.@XU.U.|. X`.V.&.|.~.~. X X X X X X X~.^.+X<.z.@XL.'. X'.~.s , k.<.F.F.~.;.w.}.w.+.+.;.:.5.x 7 U     ",
"                          o.$X'.H.~.|.`.V.#.|.~.~. X X XXX X XXX~.^.@X<.h.#X!.L.XX|.'.w   I 5.J.J.|.<.w.+X XI.W.m.0.p   u }     ",
"                          o.+X'.Y.`.|.`.K.&.|.).^. X|.'.'.`.|. X~.~.@X<.h.#X`.U. X|.'.u   z ;.f.g.S.&.A q.>.:.0.q.R.*.  x }     ",
"                          O.#X'.R.).|.`.V.#. X`.R.+Xm.f h a m.+X!.~.OX:.z.@X}.Y.oX|._.t   x M X # @ @ X X @ # $ . D I.k D 5     ",
"                          D .X`.R.^.`.|.V.O. X'.`.%XF.j j h D.&X`.[.%Xq.p..X^.U.`.`. Xx   D M         X < < 5 5 1 2 m.a.5       ",
"                          % i i u u 0 ;.'.{ #.V s j g i u a l l j k n p 1 u 0 w 0 u F.v.3 6.0           % $ @ $ 4 $ C M         ",
"                          . 8 0 i 0 4 1 F./.=.O             . . X . @   @ 5 0 0 0 > V [.:.a             X # @ @ % : X           ",
"                            1 u 0 3 u 1 A v.>           .     .   .     . 0 5 5 0 u 4 j.}                                       ",
"                            X 1 < 1 5 0 % @                               $ 1 1 1 0 , % X                                       ",
"                              . X .   .                                     . . . .                                             ",
"                                                                                                                                ",
"                                                                                                                                ",
"                                                                                                                                ",
"                                                                                                                                ",
"                                                                                                                                ",
"                                                                                                                                ",
"                                                                                                                                ",
"                                                                                                                                ",
"                                                                                                                                "
};
