/* XPM */
static char *result[] = {
/* columns rows colors chars-per-pixel */
"64 64 69 1 ",
"  c #322C26",
". c #342D29",
"X c #382F2C",
"o c #39302D",
"O c #3D3231",
"+ c #42342F",
"@ c #413536",
"# c #4A3833",
"$ c #443739",
"% c #46383C",
"& c #493A3E",
"* c #523C37",
"= c #5D423D",
"- c #60433E",
"; c #4D3D43",
": c #513F46",
"> c #513F48",
", c #5B4243",
"< c #54414A",
"1 c #58444F",
"2 c #5B4652",
"3 c #5F4857",
"4 c #694742",
"5 c #6A4843",
"6 c #64484E",
"7 c #734C47",
"8 c #764E49",
"9 c #7C514C",
"0 c #604957",
"q c #6A4C57",
"w c #624B5B",
"e c #6C4F5F",
"r c #6F505E",
"t c #7A5153",
"y c #7E555B",
"u c #674E61",
"i c #694E61",
"p c #6C5065",
"a c #6F5369",
"s c #765361",
"d c #785566",
"f c #75566F",
"g c #79576E",
"h c #7C586D",
"j c #765770",
"k c #795770",
"l c #775872",
"z c #795873",
"x c #82544F",
"c c #855652",
"v c #8E5A55",
"b c #835659",
"n c #89595A",
"m c #935C57",
"M c #945D5B",
"N c #9B605B",
"B c #A4655F",
"V c #A8665F",
"C c #8D5D66",
"Z c #835A6B",
"A c #8B5D69",
"S c #925F66",
"D c #956065",
"F c #9C6263",
"G c #956168",
"H c #986268",
"J c #A56561",
"K c #A96762",
"L c #AB6863",
/* pixels */
"jfffffkfffp@ .7JBBJJJNJSZfffffffjffff;  =BBBJJJBNBAfkfffaflffff2",
"fjfflffkfjfO .8KJKBJJKJJAfffjjfffjjjj;  -KBJJJKVKKAfflfkllfffjl2",
"jjffffjjfja@ .8KBJFJJFJJZjfjffffjfffj;  -KBJJFJFFJZfkffjffjjffj2",
"jffffzjffla@ .8KVShhhhghfjffjfffjffjj;  -KKFhhhhhhgfjffffflfjjl2",
"jfffffffjza$  8KBSfjjjjjjfjfffffjfjjj;  -JKFfjjjfjjfjfffffzjffj2",
"fjfflffzjzaO .8KVSjfffffjjffjjffjjjjz;  -KBFgjfjfffjfjfflfffjjk3",
"j1;&3flp;;%o..6AZZjjfjjffjkw;%1fjf>;;O. :AZZgjffffffzi;;>sjj2&;@",
"j%  <fzw.  .. 2lffffffjjffj1  @fkiO   . ;jfffffjjfjfkw. Oilf&   ",
"z; .1zzwo.....2zkkzjzjkjjjz1  $fzfO X.. ;llzklljllljzw..Oazl; X.",
"2O .%22<......;322222223222;  O221O ....$222222222222<..X<22OX..",
" .....  ..... .             X     ........ .  .. ........ . ....",
".                       ..X           ..          .... .        ",
".@#########@OO%###@@@@@@X .@###@$@######@###@@@@O@o...######%##$",
" 9NNNNNNNNNdaaCFMCsfaaaa%  -BMMfadMNNNNMNNNMfapffa< .*NNNNNNNNNC",
" cLJVKKKKKJhjlDJKSjjjjkj%  5KKSkjkFKJJLJKJKFgjjjkz<  #JJJJJKJJBD",
".cKJBFJBFBFhfkCBJSjfjjff%  4KVFgjfFJJJJJJJBFgfffff<  *BJJBJJJJBS",
".9KKDhZZhZhgjjhhZhjffjlf%  5JJFgfkhhZhZhZhhhfjkffj<  #JJJZhZZhhh",
".cKJCjjjjffjfjfffjflffff$  5JKSgfkfjjjjffjffjffffl<  *JJFhjjjjjf",
" xLBCjfjjzkjffzflffffflf%  5KLFjjjfkfkkfllfflfllgz<  *BBJhjffllf",
".qGCZjlp<>1ajjw<<3jfa1<<O. ,AAAffjfffflle<<2ffl2<<% .#AAAfjj3<<3",
".wjjjflw. oigf:  ;fziO  ...>jjfffffflffl2  OpkfO  .. %ffffff&  ;",
".wzlllzio Oizz:  ;zzpO ... 1zkkkllllzzlz2..Ofzk$  .. &kzlzzz;..;",
".<w3w3w2..X2ww&  $ww2o.... ;wwww33www333<..O3wwO ..  @wwwwww$. %",
"............... ............. ................ . ..o .    ......",
".  .    .  ....                 .... ....          ..  .       .",
"OOOOOOOOOOO...o@++++++@+o@o+++@oOOOoOX..o+++++@OOOOOOOOOOOOOOOOo",
"ipiippppppw@ .5MmmmmmmmmsipymMnippppi$. =mmmmmmsippppipippppppp1",
"zzzzlljljlf@  9LKKKKKKKKZzzALLFjlljll<  -KKKKKKZjllllllzllllllz2",
"jjffjffjfja@ .8KJJVVJJBBZzfABVFfjjjjl=  -KBBBBJZjjffffffffffffj2",
"jjfjfjjffja@ .8KJFZZAZZZkjfhAZZjjajjl<  =KKFAZZfjjjjlffjffljffl2",
"jjfjfjjffjf@  8KBSfjfjjjjjfjjjjjjjjjj;  -KBFhjjffjjfjffffjjfffl2",
"fjjljjfjjza@  8KVSkffffjjjfjjjjjjjjjl%  =KVFkjkfjfjjfflzzjffllz3",
"fw22wlla221O .6GDZflfjjjffki213fja312OX.=ACAfjllfjlflf113fjjw<1<",
"j%  <llwo ... 2jfffffffjffl1  $fjaO.....<fffffflfffflw. Owll<   ",
"l&  <zzro ....2zllllllzlllz2  %kljO.... <lllllllllllzi..Oalz=  .",
"i$ .;ip1..... <iiiiiiiiupww<  @wi3O.... %ierewiiiiwei2. o0iiO ..",
"o...oooo......oo.oooo.ooo.o...oooo.......oooXo.oooo.oX...XXoX...",
"......  ......  .  .   ..... . . ........... ... .  ........ . .",
"..ooooooooooo.ooo.oooooo....ooo.ooooooXooooooXoooo. ..ooooooooOo",
".7mvvvmvvvvriryvmyuiiiii$ .-vvnrwenvvvvvvvvbiuiiii<  #vvvvvvvvny",
".cLKLLLLKLJZzzGKKHllllll%  5KKFzlhFLKKKKKKLFhlllll<  =KKVLKKKKLG",
".xKJJJJJBBJhjjDBBDfffjff%  4KVDfllNLBBJJKJVFlffffj<  =NJBVBJJKBD",
".cKJFZAAZCAfjjhACZjfffjf% .5KKDfjjAAAACCAAAAjffffl<  #JJNGAAAAAh",
".9KJCjjjffffjjffjfflffff%  5KVFkjfllfjjlfffjflfffl<  #JJFhjjfffk",
" cLVCfgjjzkfjflkzzffjjzj&. 5VVDkjjfflfffllzzlllllz<. #NKFhjalzzl",
" tFSZfffwwwfjji00ijjfw33O. ,HDCkjjfjfffli33uflju33&. =DDSjjjw33i",
".wzjjfkw. oizf;  &flpO  .. <kfffjjjjfffl2. Opjf$.... $ffffjj$ .<",
" wzjlzzio Oizz>  ;zzpO ... <lkkljljllllz3. OflfO ... $lllljj=  <",
" 2iipip3X Owpp;  %ppwO ....<pppppipippip1..Owpi$ ... @ppippp& .;",
".OOOOOOO...oOO. .oOOO.......OOOOOOOOOOOOX...OOO.......OOOOOoo...",
"....    ...  .....    ......    .    ........ ...........   ....",
"......... ...... ........ ................................... ..",
"www3wwww3w3O .-cxxxcxcxxqw3rxxtw33w3w%. *cxxcxxq3w3ww33www3w33w<",
"kjzkljjkjlf@ .9LKLKLKLKKZlzSKLFhzlzzz;. -LKKKLKZlzllzllllzllllz2",
"jfjfjfffffp@ .8KJJJJJJBBZjfAVVFfffjjj;  -KJJKVBZjffjlfkffffflfl2",
"fffffjfjfzf@  8KJFCCCDCAhjjhDCZkjlfjj; .-JJJACChjffffffffffffll2",
"jjfjfjlfffp@ .8JBDjjfjfjjflfjfffjfjfl;..-KJFhfjjkfffjfflffjjffl2",
"flzljfffzzf$ .8KKSjfffkkkjfzllljfjzzz;  -KKFgjffjfllflzzllffllz2",
"jpwepllfeiwO..7FFCjfjflfffjpwipfjfiwi%  =FFSgjfffkffjfiwiflkpwp<",
"f;o.<jlioXX...2zgffjffffffl2..%fja@.o.. ;gfffffjfffflwo.Opjk<...",
"l%  <llw. ... 2ljjjjjjljljz1  $flaO ....;jjjjjjjlljjzw. oplf;   ",
"a% .>ff3o.....1faafpfaaaaaf<. @pfpO.... &faffaafaaaafw..Owff& ..",
"@o..oO$O......oO@@O@O@@@O@OO..X@O@......X@@@O@@O$O@@@O...@@@o...",
" ...   .........  .  .  .   ...   .......             ...   ...."
};
