/* XPM */
static char *result[] = {
/* columns rows colors chars-per-pixel */
"64 64 5 1 ",
"  c black",
". c #727272",
"X c #AEAEAE",
"o c #D0D0D0",
"O c white",
/* pixels */
"                                                                ",
"                                                                ",
"  oooooooo                                            OOOOOOOO  ",
"  oooooooo                                            OOOOOOOO  ",
"  oooooooo                                            OOOOOOOO  ",
"  oooooooo                                            OOOOOOOO  ",
"  oooooooo                                            OOOOOOOO  ",
"  oooooooo                                            OOOOOOOO  ",
"  oooooooo  OOOOOOOOOOOOOOOOOOOOOOOOOOOOOOOOOOOOOOOO  OOOOOOOO  ",
"  oooooooo  OOOOOOOOOOOOOOOOOOOOOOOOOOOOOOOOOOOOOOOO  OOOOOOOO  ",
"            OOOOOOOOOOOOOOOOOOOOOOOOOOOOOOOOOOOOOOOO            ",
"            OOOOOOOOOOOOOOOOOOOOOOOOOOOOOOOOOOOOOOOO            ",
"        oooo                                        XXXX        ",
"        oooo                                        XXXX        ",
"        oooo                                        XXXX        ",
"        oooo                                        XXXX        ",
"        oooo        OOOOOOOOOOOOOOOOOOOOOOOO        XXXX        ",
"        oooo        OOOOOOOOOOOOOOOOOOOOOOOO        XXXX        ",
"        oooo        OOOOOOOOOOOOOOOOOOOOOOOO        XXXX        ",
"        oooo        OOOOOOOOOOOOOOOOOOOOOOOO        XXXX        ",
"        oooo    oooo                        XXXX    XXXX        ",
"        oooo    oooo                        XXXX    XXXX        ",
"        oooo    oooo                        XXXX    XXXX        ",
"        oooo    oooo                        XXXX    XXXX        ",
"        oooo    oooo      OOOOOOOOOOOO      XXXX    XXXX        ",
"        oooo    oooo      OOOOOOOOOOOO      XXXX    XXXX        ",
"        oooo    oooo    oo            XX    XXXX    XXXX        ",
"        oooo    oooo    oo            XX    XXXX    XXXX        ",
"        oooo    oooo    oo    OOOO    XX    XXXX    XXXX        ",
"        oooo    oooo    oo    OOOO    XX    XXXX    XXXX        ",
"        oooo    oooo    oo  oo    XX  XX    XXXX    XXXX        ",
"        oooo    oooo    oo  oo    XX  XX    XXXX    XXXX        ",
"        oooo    oooo    oo  oo    XX  XX    XXXX    XXXX        ",
"        oooo    oooo    oo  oo    XX  XX    XXXX    XXXX        ",
"        oooo    oooo    oo    ....    XX    XXXX    XXXX        ",
"        oooo    oooo    oo    ....    XX    XXXX    XXXX        ",
"        oooo    oooo    oo            XX    XXXX    XXXX        ",
"        oooo    oooo    oo            XX    XXXX    XXXX        ",
"        oooo    oooo      ............      XXXX    XXXX        ",
"        oooo    oooo      ............      XXXX    XXXX        ",
"        oooo    oooo                        XXXX    XXXX        ",
"        oooo    oooo                        XXXX    XXXX        ",
"        oooo    oooo                        XXXX    XXXX        ",
"        oooo    oooo                        XXXX    XXXX        ",
"        oooo        ........................        XXXX        ",
"        oooo        ........................        XXXX        ",
"        oooo        ........................        XXXX        ",
"        oooo        ........................        XXXX        ",
"        oooo                                        XXXX        ",
"        oooo                                        XXXX        ",
"        oooo                                        XXXX        ",
"        oooo                                        XXXX        ",
"            ........................................            ",
"            ........................................            ",
"  ........  ........................................  ........  ",
"  ........  ........................................  ........  ",
"  ........                                            ........  ",
"  ........                                            ........  ",
"  ........                                            ........  ",
"  ........                                            ........  ",
"  ........                                            ........  ",
"  ........                                            ........  ",
"                                                                ",
"                                                                "
};
